<svg xmlns="http://www.w3.org/2000/svg" viewBox="0 -0.5 48 27" shape-rendering="crispEdges">
<metadata>Made with Pixels to Svg https://codepen.io/shshaw/pen/XbxvNj</metadata>
<path stroke="#131313" d="M0 0h32M33 0h15M0 1h12M13 1h7M21 1h16M38 1h3M42 1h6M0 2h11M12 2h7M20 2h11M32 2h16M0 3h35M36 3h12M0 4h8M11 4h3M17 4h9M27 4h1M29 4h19M0 5h7M9 5h5M15 5h10M28 5h2M31 5h1M36 5h12M0 6h2M3 6h4M9 6h5M15 6h4M20 6h4M25 6h2M28 6h4M33 6h3M38 6h10M0 7h1M2 7h5M8 7h6M15 7h4M20 7h3M28 7h2M31 7h1M33 7h2M38 7h10M1 8h1M3 8h4M13 8h1M20 8h3M24 8h1M28 8h4M36 8h12M0 9h7M10 9h2M13 9h1M16 9h3M20 9h2M23 9h4M28 9h4M36 9h6M43 9h5M0 10h4M5 10h14M20 10h6M27 10h2M30 10h4M35 10h3M39 10h6M46 10h2M1 11h20M22 11h26M0 12h22M24 12h24M0 13h32M33 13h12M46 13h2M1 14h27M29 14h11M41 14h7M0 15h26M27 15h4M32 15h16M0 16h10M13 16h6M20 16h28M0 17h10M11 17h2M15 17h2M20 17h28M0 18h9M11 18h1M15 18h2M18 18h20M39 18h8M0 19h9M10 19h2M15 19h2M18 19h3M22 19h5M28 19h20M0 20h3M4 20h5M10 20h3M15 20h2M18 20h2M25 20h18M44 20h4M0 21h9M15 21h2M22 21h2M25 21h4M30 21h18M0 22h9M10 22h6M17 22h7M25 22h6M32 22h5M38 22h2M41 22h7M0 23h29M30 23h18M0 24h48M0 25h26M27 25h17M45 25h3M0 26h4M5 26h2M8 26h16M25 26h21M47 26h1" />
<path stroke="#131113" d="M32 0h1M19 2h1M31 2h1M15 4h1M28 4h1M21 11h1M0 14h1M31 15h1M47 18h1M27 19h1M37 22h1" />
<path stroke="#131213" d="M12 1h1M37 1h1M41 1h1M35 3h1M8 6h1M1 7h1M12 8h1M42 9h1M32 13h1M38 18h1M7 26h1M24 26h1" />
<path stroke="#131311" d="M20 1h1M16 4h1M45 10h1M45 13h1M26 15h1M29 23h1M4 26h1" />
<path stroke="#131312" d="M11 2h1M26 4h1M2 6h1M0 8h1M25 8h1M4 10h1M38 10h1M40 14h1M14 19h1M21 19h1M40 22h1M26 25h1M46 26h1" />
<path stroke="#797979" d="M8 4h3M14 4h1M7 5h2M14 5h1M25 5h3M32 5h1M34 5h2M7 6h1M14 6h1M19 6h1M24 6h1M27 6h1M32 6h1M36 6h2M7 7h1M14 7h1M19 7h1M23 7h5M32 7h1M35 7h3M7 8h1M9 8h3M14 8h6M23 8h1M26 8h2M32 8h4M7 9h3M14 9h1M19 9h1M22 9h1M32 9h3M19 10h1M34 10h1M10 16h3M19 16h1M10 17h1M13 17h2M17 17h3M9 18h2M12 18h1M14 18h1M17 18h1M9 19h1M12 19h1M17 19h1M9 20h1M13 20h2M17 20h1M20 20h5M10 21h5M17 21h5M24 21h1M9 22h1M24 22h1" />
<path stroke="#111313" d="M30 5h1M30 7h1M12 9h1M29 10h1M22 12h2M28 14h1M16 22h1" />
<path stroke="#797879" d="M33 5h1M27 9h1" />
<path stroke="#121313" d="M2 8h1M8 8h1M35 9h1M0 11h1M29 21h1M31 22h1M44 25h1" />
<path stroke="#787979" d="M15 9h1M13 18h1" />
<path stroke="#111113" d="M26 10h1" />
<path stroke="#797978" d="M13 19h1" />
<path stroke="#131112" d="M3 20h1" />
<path stroke="#121213" d="M43 20h1" />
<path stroke="#79797b" d="M9 21h1" />
</svg>