<svg xmlns="http://www.w3.org/2000/svg" viewBox="0 -0.5 48 27" shape-rendering="crispEdges">
<metadata>Made with Pixels to Svg https://codepen.io/shshaw/pen/XbxvNj</metadata>
<path stroke="#131313" d="M0 0h3M4 0h6M11 0h24M36 0h2M39 0h9M0 1h3M4 1h2M7 1h17M25 1h11M39 1h9M0 2h7M8 2h16M25 2h2M33 2h3M37 2h3M41 2h5M47 2h1M0 3h12M13 3h2M23 3h3M28 3h2M36 3h5M42 3h6M0 4h11M13 4h4M18 4h2M23 4h2M28 4h3M32 4h3M36 4h1M38 4h6M45 4h3M0 5h12M13 5h1M15 5h1M18 5h2M23 5h1M26 5h1M29 5h2M32 5h3M37 5h1M40 5h4M45 5h2M0 6h2M3 6h9M13 6h4M18 6h2M22 6h2M25 6h2M29 6h2M33 6h1M36 6h4M41 6h5M47 6h1M0 7h8M9 7h1M11 7h1M13 7h1M16 7h1M20 7h5M29 7h2M34 7h4M39 7h9M0 8h12M15 8h5M21 8h1M23 8h4M30 8h4M35 8h5M41 8h2M44 8h4M2 9h3M6 9h1M8 9h2M11 9h23M35 9h13M0 10h11M13 10h2M16 10h12M29 10h6M36 10h2M39 10h9M0 11h3M4 11h18M23 11h10M34 11h4M39 11h4M44 11h4M0 12h6M7 12h4M14 12h12M27 12h1M30 12h1M32 12h2M35 12h5M42 12h6M0 13h1M2 13h15M18 13h20M40 13h8M0 14h12M13 14h2M16 14h7M24 14h1M26 14h14M41 14h7M2 15h5M8 15h4M13 15h13M27 15h6M34 15h1M36 15h2M39 15h4M44 15h4M0 16h38M39 16h5M45 16h3M0 17h11M12 17h6M20 17h9M30 17h11M42 17h6M1 18h11M13 18h2M16 18h2M20 18h7M28 18h9M38 18h9M1 19h9M12 19h6M19 19h2M22 19h3M26 19h9M36 19h10M47 19h1M0 20h7M8 20h4M13 20h1M16 20h14M31 20h1M33 20h13M47 20h1M0 21h4M5 21h5M11 21h2M14 21h1M16 21h3M20 21h17M39 21h9M0 22h15M16 22h17M34 22h4M39 22h2M42 22h1M45 22h3M0 23h3M4 23h4M9 23h1M11 23h15M27 23h9M37 23h1M39 23h1M41 23h2M44 23h2M47 23h1M1 24h1M3 24h9M13 24h4M18 24h8M27 24h3M31 24h6M38 24h10M0 25h3M4 25h16M21 25h1M23 25h3M27 25h3M31 25h8M41 25h3M45 25h3M0 26h3M4 26h1M6 26h9M16 26h3M20 26h8M29 26h18" />
<path stroke="#131113" d="M3 0h1M44 5h1M22 8h1M15 10h1M22 11h1M43 11h1M17 13h1M38 16h1M10 19h1M7 20h1M33 22h1M3 23h1M28 26h1" />
<path stroke="#131213" d="M10 0h1M38 1h1M40 2h1M16 3h1M14 5h1M29 8h1M10 9h1M11 10h1M33 11h1M29 12h1M23 14h1M40 14h1M7 15h1M12 15h1M18 17h2M0 18h1M12 18h1M15 18h1M18 18h1M15 21h1M15 22h1M38 22h1M12 24h1M17 24h1M30 25h1M19 26h1" />
<path stroke="#111313" d="M35 0h1M3 1h1M16 5h1M36 5h1M32 6h1M20 8h1M40 8h1M34 9h1M11 12h2M26 12h1M31 12h1M34 12h1M40 12h1M1 13h1M35 15h1M47 18h1M35 19h1M30 20h1M13 21h1M37 21h1M8 23h1M46 23h1M30 24h1M3 25h1M20 25h1M3 26h1M15 26h1" />
<path stroke="#131312" d="M38 0h1M6 1h1M37 1h1M46 2h1M15 3h1M20 4h1M27 4h1M37 4h1M20 5h1M8 7h1M10 7h1M38 7h1M27 8h1M34 8h1M3 11h1M6 12h1M38 13h1M12 14h1M15 14h1M25 14h1M1 15h1M33 15h1M38 15h1M29 17h1M41 17h1M25 19h1M10 23h1M26 23h1M40 23h1M43 23h1M22 25h1" />
<path stroke="#131111" d="M24 1h1M10 21h1" />
<path stroke="#121313" d="M36 1h1M36 2h1M30 3h1M11 4h1M44 4h1M39 5h1M47 5h1M2 6h1M40 6h1M43 8h1M1 9h1M13 12h1M41 12h1M39 13h1M0 15h1M37 18h1M0 19h1M11 19h1M18 19h1M46 19h1M12 20h1M14 20h1M46 20h1M4 21h1M41 22h1M43 22h2M36 23h1M38 23h1M0 24h1M26 25h1M39 25h1M44 25h1M5 26h1M47 26h1" />
<path stroke="#131311" d="M7 2h1M22 3h1M41 3h1M38 5h1M46 6h1M0 9h1M5 9h1M7 9h1M12 10h1M28 10h1M35 10h1M28 12h1M26 15h1M43 15h1M44 16h1M11 17h1M19 18h1M27 18h1M21 19h1M19 21h1M38 21h1M26 24h1M37 24h1M40 25h1" />
<path stroke="#131211" d="M24 2h1M38 10h1" />
<path stroke="#797979" d="M27 2h6M12 3h1M17 3h5M26 3h1M31 3h4M12 4h1M17 4h1M21 4h1M25 4h2M31 4h1M35 4h1M12 5h1M17 5h1M21 5h2M24 5h2M27 5h1M31 5h1M35 5h1M12 6h1M17 6h1M24 6h1M27 6h2M31 6h1M34 6h2M12 7h1M14 7h2M17 7h3M25 7h4M31 7h3M12 8h3" />
<path stroke="#7b7979" d="M27 3h1M21 6h1" />
<path stroke="#787979" d="M35 3h1" />
<path stroke="#7b7978" d="M22 4h1" />
<path stroke="#797978" d="M28 5h1" />
<path stroke="#79797b" d="M20 6h1" />
<path stroke="#797879" d="M28 8h1" />
<path stroke="#101313" d="M38 11h1" />
<path stroke="#111113" d="M15 20h1M2 24h1" />
<path stroke="#111213" d="M32 20h1" />
</svg>