<svg xmlns="http://www.w3.org/2000/svg" viewBox="0 -0.5 48 27" shape-rendering="crispEdges">
<metadata>Made with Pixels to Svg https://codepen.io/shshaw/pen/XbxvNj</metadata>
<path stroke="#131313" d="M0 0h48M0 1h34M35 1h3M39 1h9M0 2h13M15 2h15M31 2h15M47 2h1M0 3h7M8 3h5M14 3h1M17 3h12M30 3h6M38 3h10M0 4h7M9 4h4M15 4h1M18 4h1M20 4h2M24 4h2M27 4h2M30 4h5M38 4h10M0 5h7M8 5h1M11 5h2M17 5h2M23 5h2M26 5h1M30 5h4M36 5h1M38 5h10M0 6h6M10 6h3M17 6h1M22 6h3M26 6h1M29 6h4M38 6h5M44 6h4M0 7h6M7 7h2M11 7h2M14 7h2M17 7h2M23 7h2M26 7h1M28 7h3M33 7h4M38 7h10M0 8h37M38 8h10M0 9h31M32 9h16M0 10h18M19 10h25M45 10h3M0 11h36M37 11h11M0 12h48M0 13h15M16 13h18M35 13h2M38 13h10M0 14h48M0 15h8M14 15h3M18 15h2M22 15h10M33 15h15M0 16h8M10 16h7M18 16h1M22 16h6M29 16h3M33 16h2M40 16h8M0 17h9M14 17h3M18 17h1M21 17h3M27 17h1M29 17h3M33 17h4M38 17h10M0 18h9M10 18h1M12 18h5M18 18h1M20 18h2M24 18h2M35 18h2M38 18h10M0 19h9M10 19h7M18 19h2M21 19h2M24 19h2M29 19h3M33 19h4M38 19h10M0 20h21M24 20h2M27 20h1M29 20h8M38 20h10M0 21h37M38 21h10M0 22h48M0 23h48M0 24h48M0 25h48M0 26h48" />
<path stroke="#131312" d="M34 1h1M38 1h1M14 4h1" />
<path stroke="#797979" d="M13 2h2M30 2h1M7 3h1M13 3h1M15 3h2M29 3h1M36 3h2M7 4h2M13 4h1M17 4h1M19 4h1M22 4h2M35 4h3M7 5h1M9 5h1M13 5h4M19 5h4M25 5h1M27 5h3M34 5h2M37 5h1M6 6h4M13 6h4M19 6h3M25 6h1M27 6h2M33 6h5M6 7h1M9 7h2M13 7h1M16 7h1M19 7h4M25 7h1M31 7h2M37 7h1M37 8h1M8 15h6M17 15h1M20 15h2M32 15h1M8 16h2M17 16h1M20 16h1M28 16h1M32 16h1M35 16h5M9 17h5M17 17h1M19 17h2M24 17h3M28 17h1M32 17h1M37 17h1M9 18h1M11 18h1M17 18h1M19 18h1M22 18h2M26 18h9M37 18h1M9 19h1M17 19h1M20 19h1M23 19h1M26 19h3M32 19h1M37 19h1M21 20h3M26 20h1M28 20h1M37 20h1M37 21h1" />
<path stroke="#131213" d="M46 2h1M44 10h1M19 16h1M21 16h1" />
<path stroke="#797b79" d="M16 4h1" />
<path stroke="#797879" d="M26 4h1M29 4h1" />
<path stroke="#121313" d="M10 5h1M18 6h1M34 13h1M37 13h1" />
<path stroke="#131311" d="M43 6h1M31 9h1M18 10h1M36 11h1" />
<path stroke="#131113" d="M27 7h1" />
<path stroke="#111313" d="M15 13h1" />
</svg>