<svg xmlns="http://www.w3.org/2000/svg" viewBox="0 -0.5 48 27" shape-rendering="crispEdges">
<metadata>Made with Pixels to Svg https://codepen.io/shshaw/pen/XbxvNj</metadata>
<path stroke="#131313" d="M0 0h20M21 0h27M0 1h17M18 1h17M36 1h1M38 1h1M41 1h7M0 2h5M6 2h14M21 2h20M42 2h6M0 3h32M33 3h7M41 3h7M0 4h21M22 4h26M0 5h10M11 5h1M13 5h18M32 5h4M37 5h6M44 5h4M0 6h10M11 6h5M17 6h1M20 6h7M28 6h18M47 6h1M0 7h9M12 7h2M15 7h1M18 7h2M21 7h27M0 8h8M10 8h1M13 8h3M17 8h2M21 8h1M23 8h1M26 8h11M39 8h7M47 8h1M0 9h8M9 9h3M13 9h3M17 9h1M20 9h2M23 9h6M31 9h1M34 9h3M40 9h8M0 10h8M14 10h2M17 10h1M19 10h3M27 10h2M33 10h3M37 10h2M40 10h8M0 11h4M5 11h3M9 11h4M14 11h2M17 11h1M19 11h2M23 11h6M30 11h5M40 11h8M0 12h8M9 12h4M14 12h5M20 12h2M23 12h2M26 12h3M30 12h5M36 12h3M40 12h8M0 13h10M11 13h12M26 13h3M30 13h5M36 13h3M40 13h3M44 13h4M0 14h1M2 14h4M7 14h10M18 14h4M23 14h6M30 14h18M1 15h32M34 15h14M0 16h25M26 16h5M32 16h7M41 16h7M0 17h27M29 17h13M43 17h5M0 18h10M11 18h37M0 19h21M22 19h7M30 19h18M0 20h20M21 20h7M29 20h1M31 20h2M34 20h14M0 21h9M10 21h38M0 22h39M40 22h8M0 23h3M4 23h18M23 23h20M44 23h4M0 24h2M3 24h16M20 24h14M35 24h7M43 24h5M0 25h2M3 25h4M8 25h24M33 25h8M42 25h6M0 26h45M46 26h2" />
<path stroke="#131311" d="M20 0h1M17 1h1M37 1h1M39 1h1M27 6h1M0 15h1M33 15h1M42 17h1M21 19h1M29 19h1M9 21h1M3 23h1M43 23h1M34 24h1" />
<path stroke="#131113" d="M35 1h1M5 2h1M20 2h1M31 16h1M45 26h1" />
<path stroke="#131213" d="M40 1h1M36 5h1M43 5h1M46 6h1M17 7h1M4 11h1M43 13h1M28 20h1M19 24h1M32 25h1" />
<path stroke="#131312" d="M41 2h1M14 7h1M11 8h1M46 8h1M22 14h1M25 16h1M30 20h1M22 23h1M2 25h1M41 25h1" />
<path stroke="#121313" d="M32 3h1M10 5h1M21 11h1M10 13h1M1 14h1M6 14h1M17 14h1M40 16h1" />
<path stroke="#111313" d="M40 3h1M21 4h1M12 5h1M31 5h1M39 16h1M27 17h2M10 18h1M20 20h1M33 20h1M2 24h1M42 24h1M7 25h1" />
<path stroke="#797979" d="M10 6h1M16 6h1M18 6h2M9 7h3M16 7h1M20 7h1M8 8h2M12 8h1M16 8h1M19 8h2M22 8h1M24 8h2M37 8h2M8 9h1M12 9h1M16 9h1M18 9h2M22 9h1M29 9h2M32 9h2M37 9h1M39 9h1M8 10h6M16 10h1M18 10h1M22 10h5M29 10h4M36 10h1M39 10h1M8 11h1M13 11h1M16 11h1M18 11h1M22 11h1M29 11h1M35 11h5M8 12h1M13 12h1M19 12h1M22 12h1M25 12h1M29 12h1M35 12h1M39 12h1M23 13h3M29 13h1M35 13h1M39 13h1M29 14h1" />
<path stroke="#79797b" d="M38 9h1" />
<path stroke="#111213" d="M39 22h1" />
</svg>