<svg xmlns="http://www.w3.org/2000/svg" viewBox="0 -0.5 48 27" shape-rendering="crispEdges">
<metadata>Made with Pixels to Svg https://codepen.io/shshaw/pen/XbxvNj</metadata>
<path stroke="#131313" d="M0 0h6M7 0h9M17 0h6M24 0h12M37 0h6M45 0h3M0 1h20M21 1h4M26 1h14M41 1h1M44 1h4M1 2h4M6 2h14M21 2h3M25 2h1M27 2h3M31 2h1M33 2h1M35 2h4M42 2h1M44 2h1M46 2h2M0 3h4M5 3h28M34 3h11M46 3h2M0 4h9M10 4h16M27 4h4M32 4h16M0 5h1M2 5h3M6 5h4M14 5h2M17 5h3M22 5h1M24 5h3M28 5h19M0 6h1M3 6h4M8 6h1M11 6h2M14 6h2M17 6h2M21 6h4M26 6h2M29 6h1M43 6h3M47 6h1M0 7h1M2 7h8M15 7h1M17 7h1M19 7h1M22 7h3M26 7h1M29 7h4M34 7h3M39 7h3M43 7h5M1 8h5M7 8h2M11 8h2M14 8h2M17 8h1M19 8h3M23 8h1M30 8h3M34 8h14M0 9h10M11 9h5M17 9h1M23 9h3M29 9h4M34 9h14M1 10h9M11 10h5M17 10h5M23 10h4M29 10h2M32 10h1M34 10h6M41 10h2M44 10h4M0 11h11M12 11h9M24 11h2M29 11h3M35 11h2M38 11h6M46 11h1M0 12h3M5 12h12M18 12h3M22 12h4M27 12h2M31 12h7M39 12h8M0 13h3M6 13h8M15 13h13M29 13h1M31 13h4M36 13h1M38 13h4M43 13h5M0 14h3M4 14h12M17 14h2M20 14h3M24 14h24M0 15h1M2 15h2M5 15h2M8 15h3M12 15h15M28 15h1M31 15h2M34 15h3M38 15h1M40 15h5M46 15h2M1 16h6M9 16h2M12 16h5M23 16h3M29 16h13M44 16h4M1 17h6M8 17h5M14 17h3M23 17h2M27 17h1M29 17h8M38 17h1M40 17h7M0 18h9M10 18h7M21 18h4M32 18h5M40 18h1M42 18h6M0 19h1M2 19h4M9 19h1M11 19h5M19 19h1M23 19h1M27 19h3M32 19h6M39 19h1M41 19h7M0 20h1M3 20h2M6 20h7M15 20h2M22 20h4M29 20h1M32 20h1M34 20h13M0 21h3M5 21h1M7 21h3M11 21h5M19 21h8M28 21h2M31 21h1M33 21h15M0 22h14M15 22h3M19 22h18M39 22h9M0 23h2M3 23h4M8 23h9M18 23h2M21 23h4M27 23h5M33 23h1M36 23h4M41 23h7M0 24h14M15 24h4M20 24h10M31 24h1M33 24h9M43 24h5M0 25h4M5 25h1M7 25h11M19 25h6M26 25h1M28 25h3M32 25h2M35 25h4M40 25h8M0 26h2M3 26h6M10 26h4M15 26h6M22 26h5M28 26h1M30 26h2M33 26h5M39 26h8" />
<path stroke="#131312" d="M6 0h1M23 0h1M40 1h1M20 2h1M32 2h1M45 2h1M47 5h1M7 6h1M41 6h1M42 7h1M40 10h1M45 11h1M47 11h1M43 16h1M13 17h1M39 17h1M38 18h1M1 19h1M16 19h1M22 19h1M24 19h1M2 20h1M33 20h1M18 22h1M40 23h1M14 24h1M4 25h1M9 26h1M29 26h1" />
<path stroke="#131311" d="M16 0h1M0 2h1M5 2h1M34 2h1M39 2h1M26 4h1M0 10h1M44 11h1M4 12h1M26 12h1M30 12h1M16 14h1M4 15h1M7 15h1M27 15h1M10 21h1M7 23h1M25 23h2M32 23h1M6 25h1M18 25h1M32 26h1M38 26h1M47 26h1" />
<path stroke="#131213" d="M36 0h1M20 1h1M31 4h1M27 5h1M1 6h1M39 6h1M37 7h1M31 10h1M43 10h1M3 12h1M38 12h1M5 13h1M35 13h1M42 13h1M7 16h1M28 17h1M9 18h1M41 18h1M6 19h1M8 19h1M1 20h1M32 21h1M14 22h1M17 23h1M20 23h1M30 24h1M31 25h1M14 26h1M27 26h1" />
<path stroke="#111312" d="M43 0h1" />
<path stroke="#111313" d="M44 0h1M26 2h1M40 2h2M4 3h1M45 3h1M9 4h1M5 5h1M16 10h1M21 11h1M23 11h1M28 11h1M28 13h1M30 13h1M37 13h1M19 14h1M1 15h1M33 15h1M11 16h1M42 16h1M37 17h1M39 18h1M10 19h1M40 19h1M3 21h1M27 21h1M38 22h1M19 24h1M32 24h1" />
<path stroke="#131113" d="M25 1h1M42 1h1M30 2h1M1 5h1M21 5h1M9 6h1M40 6h1M27 7h1M0 8h1M9 8h1M13 8h1M11 11h1M17 12h1M47 12h1M14 13h1M3 14h1M23 14h1M39 15h1M45 15h1M8 16h1M37 18h1M38 19h1M5 20h1M14 20h1M4 21h1M6 21h1M37 22h1M2 23h1M34 23h1M25 25h1" />
<path stroke="#121313" d="M43 1h1M24 2h1M43 2h1M2 6h1M13 6h1M42 6h1M46 6h1M1 7h1M37 11h1M29 12h1M3 13h2M37 15h1M0 16h1M0 17h1M7 17h1M47 17h1M26 18h1M7 19h1M30 19h1M13 20h1M47 20h1M35 23h1M27 25h1M39 25h1M21 26h1" />
<path stroke="#131211" d="M33 3h1M21 12h1" />
<path stroke="#797979" d="M10 5h4M16 5h1M10 6h1M16 6h1M19 6h2M25 6h1M30 6h9M10 7h2M18 7h1M20 7h1M25 7h1M28 7h1M33 7h1M16 8h1M18 8h1M22 8h1M24 8h5M33 8h1M10 9h1M16 9h1M19 9h3M26 9h3M33 9h1M10 10h1M22 10h1M27 10h2M33 10h1M26 11h2M33 11h1M29 15h2M17 16h4M22 16h1M27 16h2M17 17h6M25 17h1M17 18h4M25 18h1M28 18h4M17 19h2M20 19h2M25 19h2M31 19h1M17 20h1M19 20h2M26 20h3M30 20h1M18 21h1M30 21h1" />
<path stroke="#797879" d="M20 5h1M14 7h1M29 8h1M22 9h1M31 20h1M17 21h1" />
<path stroke="#131013" d="M23 5h1" />
<path stroke="#787979" d="M28 6h1M26 17h1" />
<path stroke="#797978" d="M12 7h1M18 9h1M21 16h1M16 21h1" />
<path stroke="#7b7979" d="M13 7h1M22 11h1M27 18h1M18 20h1M21 20h1" />
<path stroke="#797b79" d="M16 7h1M21 7h1M26 16h1" />
<path stroke="#101313" d="M38 7h1" />
<path stroke="#111113" d="M6 8h1" />
<path stroke="#79797b" d="M10 8h1" />
<path stroke="#131111" d="M32 11h1" />
<path stroke="#101213" d="M34 11h1M11 15h1" />
<path stroke="#121312" d="M42 24h1M2 26h1" />
<path stroke="#111311" d="M34 25h1" />
</svg>