<svg xmlns="http://www.w3.org/2000/svg" viewBox="0 -0.5 48 27" shape-rendering="crispEdges">
<metadata>Made with Pixels to Svg https://codepen.io/shshaw/pen/XbxvNj</metadata>
<path stroke="#131313" d="M0 0h24M25 0h8M34 0h14M0 1h13M16 1h21M38 1h4M43 1h1M45 1h1M47 1h1M0 2h19M20 2h16M37 2h6M44 2h4M0 3h7M8 3h38M47 3h1M0 4h3M4 4h1M6 4h26M33 4h11M45 4h3M0 5h4M5 5h2M9 5h12M22 5h11M34 5h7M42 5h5M0 6h4M6 6h2M10 6h3M14 6h7M22 6h5M30 6h7M38 6h10M0 7h5M6 7h4M11 7h2M14 7h2M18 7h1M25 7h2M28 7h3M38 7h10M0 8h5M8 8h2M11 8h2M14 8h2M18 8h2M21 8h6M28 8h4M36 8h11M0 9h7M11 9h2M14 9h1M16 9h1M18 9h2M23 9h4M29 9h5M35 9h5M41 9h7M0 10h9M10 10h1M12 10h1M15 10h1M19 10h1M21 10h2M25 10h3M29 10h4M35 10h13M0 11h9M11 11h3M17 11h3M24 11h2M29 11h5M37 11h11M0 12h10M12 12h36M0 13h18M19 13h23M43 13h5M0 14h10M11 14h37M0 15h18M19 15h3M23 15h12M36 15h12M0 16h7M8 16h9M18 16h16M35 16h13M0 17h1M3 17h19M26 17h4M31 17h3M35 17h13M0 18h3M4 18h8M15 18h6M23 18h25M0 19h10M15 19h5M22 19h3M29 19h19M0 20h10M14 20h7M24 20h4M29 20h2M32 20h11M44 20h4M0 21h6M7 21h2M11 21h2M16 21h2M19 21h4M29 21h10M40 21h3M44 21h4M0 22h10M11 22h4M17 22h3M22 22h6M29 22h6M36 22h12M0 23h10M18 23h9M28 23h9M38 23h10M0 24h46M47 24h1M0 25h12M13 25h15M29 25h19M0 26h48" />
<path stroke="#111313" d="M24 0h1M33 0h1M19 2h1M44 4h1M40 9h1M22 15h1M7 16h1M34 16h1M2 17h1M3 18h1M27 23h1" />
<path stroke="#131113" d="M13 1h1M36 2h1M43 2h1M7 3h1M15 9h1M11 10h1M18 10h1M24 10h1M9 21h1M39 21h1M46 24h1" />
<path stroke="#131213" d="M14 1h1M47 5h1M37 6h1M36 11h1M18 13h1M18 15h1M1 17h1M20 19h1M31 20h1M20 22h1M37 23h1" />
<path stroke="#131312" d="M15 1h1M42 1h1M44 1h1M46 3h1M33 5h1M41 5h1M33 10h1M35 11h1M42 13h1M10 14h1M34 17h1M43 20h1M43 21h1M17 23h1" />
<path stroke="#131311" d="M37 1h1M46 1h1M3 4h1M21 5h1M21 6h1M16 7h1M9 11h1M35 15h1M30 17h1M6 21h1M21 22h1M35 22h1M12 25h1" />
<path stroke="#797979" d="M5 4h1M4 5h1M7 5h2M4 6h2M8 6h2M13 6h1M27 6h3M5 7h1M10 7h1M13 7h1M17 7h1M19 7h6M31 7h7M5 8h3M13 8h1M17 8h1M20 8h1M27 8h1M32 8h4M7 9h4M13 9h1M17 9h1M20 9h3M28 9h1M34 9h1M9 10h1M13 10h2M16 10h1M20 10h1M23 10h1M28 10h1M34 10h1M10 11h1M14 11h2M20 11h4M26 11h3M34 11h1M10 12h2M22 17h4M12 18h3M21 18h2M10 19h5M21 19h1M25 19h4M10 20h4M21 20h3M28 20h1M10 21h1M13 21h3M23 21h5M10 22h1M15 22h2M10 23h7" />
<path stroke="#121313" d="M32 4h1M16 8h1M47 8h1M18 21h1M28 25h1" />
<path stroke="#787979" d="M27 7h1" />
<path stroke="#7b7979" d="M10 8h1M28 21h1" />
<path stroke="#797b79" d="M27 9h1" />
<path stroke="#79797b" d="M17 10h1M28 22h1" />
<path stroke="#797978" d="M16 11h1" />
<path stroke="#121311" d="M17 16h1" />
</svg>