<svg xmlns="http://www.w3.org/2000/svg" viewBox="0 -0.5 16 16" shape-rendering="crispEdges">
<metadata>Made with Pixels to Svg https://codepen.io/shshaw/pen/XbxvNj</metadata>
<path stroke="#f3f2f2" d="M0 0h1M0 12h1M13 15h1" />
<path stroke="#f2f2f2" d="M1 0h4M6 0h3M10 0h4M0 2h1M15 2h1M12 3h1M15 3h1M0 4h1M0 5h1M10 5h1M0 6h1M9 6h1M15 6h1M0 7h1M8 7h1M15 7h1M0 8h1M7 8h1M15 8h1M0 9h1M3 9h1M6 9h1M15 9h1M0 10h1M4 10h2M15 10h1M0 11h1M4 11h3M15 11h1M3 12h1M7 12h1M15 12h1M0 13h1M15 13h1M0 14h1M0 15h1M2 15h5M8 15h2M11 15h1M14 15h2" />
<path stroke="#f2f2f0" d="M5 0h1M9 0h1M10 15h1" />
<path stroke="#f0f2f2" d="M14 0h2M15 4h1M1 15h1M7 15h1" />
<path stroke="#f2f3f2" d="M0 1h1M15 14h1M12 15h1" />
<path stroke="#131313" d="M1 1h2M4 1h2M8 1h3M13 1h2M1 2h4M6 2h2M9 2h6M1 3h1M3 3h6M13 3h2M1 4h1M3 4h5M9 4h1M14 4h1M2 5h2M5 5h3M11 5h3M2 6h3M6 6h3M11 6h2M14 6h1M2 7h3M6 7h2M10 7h4M1 8h2M4 8h3M9 8h3M13 8h1M1 9h2M4 9h2M7 9h1M9 9h5M1 10h1M3 10h1M6 10h3M10 10h1M12 10h3M1 11h3M7 11h2M10 11h2M13 11h2M2 12h1M4 12h3M9 12h4M2 13h3M6 13h1M8 13h7M4 14h2M8 14h1M10 14h1M12 14h1" />
<path stroke="#121313" d="M3 1h1M5 2h1M11 3h1M12 11h1M13 12h1" />
<path stroke="#111313" d="M6 1h1M12 4h1M8 5h1M14 8h1M8 9h1M1 12h1M7 13h1M14 14h1" />
<path stroke="#131311" d="M7 1h1M12 1h1M9 3h2M14 5h1M13 6h1M1 7h1M9 7h1M3 8h1M8 8h1M2 10h1M9 10h1M11 10h1M14 12h1M1 13h1M6 14h2" />
<path stroke="#131312" d="M11 1h1M8 2h1M1 5h1M9 5h1M5 6h1M12 8h1M14 9h1M9 11h1M8 12h1M9 14h1" />
<path stroke="#f3f2f0" d="M15 1h1" />
<path stroke="#f2f0f2" d="M0 3h1" />
<path stroke="#131211" d="M2 3h1" />
<path stroke="#131213" d="M2 4h1M8 4h1M10 4h1M1 6h1M5 7h1" />
<path stroke="#f2f1f2" d="M11 4h1" />
<path stroke="#131113" d="M13 4h1M10 6h1M5 13h1M1 14h3M11 14h1M13 14h1" />
<path stroke="#121310" d="M4 5h1" />
<path stroke="#f2f2f3" d="M15 5h1" />
<path stroke="#131013" d="M14 7h1" />
</svg>