<svg xmlns="http://www.w3.org/2000/svg" viewBox="0 -0.5 16 16" shape-rendering="crispEdges">
<metadata>Made with Pixels to Svg https://codepen.io/shshaw/pen/XbxvNj</metadata>
<path stroke="#f2f2f2" d="M0 0h3M5 0h1M8 0h2M15 0h1M0 1h1M15 1h1M4 2h3M11 2h1M13 2h1M13 3h1M15 3h1M0 4h1M4 4h2M9 4h3M0 6h1M5 6h1M8 6h2M11 6h1M13 6h1M0 7h1M3 7h6M11 7h1M15 7h1M0 8h1M8 8h1M13 8h1M15 8h1M2 9h1M6 9h1M15 9h1M3 10h1M9 10h1M11 10h1M15 10h1M0 11h1M3 11h2M11 11h1M2 12h1M5 12h1M15 12h1M0 13h1M2 13h2M5 13h2M0 14h1M15 14h1M1 15h2M4 15h3M10 15h1M12 15h1" />
<path stroke="#f0f2f2" d="M3 0h2M10 0h1M15 2h1M15 5h1M13 9h1M0 12h1M4 12h1" />
<path stroke="#f2f2f3" d="M6 0h1M3 4h1M13 4h1M8 11h1M3 12h1M15 13h1" />
<path stroke="#f2f0f2" d="M7 0h1M14 0h1M7 4h1M11 5h1M6 6h2M8 15h2" />
<path stroke="#f2f2f0" d="M11 0h2M7 2h1M13 5h1M13 7h1M8 12h1M13 12h1" />
<path stroke="#f2f3f2" d="M13 0h1M10 5h1M9 7h1M0 9h1M0 10h1M8 10h1M15 15h1" />
<path stroke="#131313" d="M1 1h1M4 1h2M7 1h2M10 1h1M13 1h1M1 2h1M3 2h1M14 2h1M2 3h4M7 3h1M1 4h1M2 5h1M4 5h1M6 5h1M8 5h2M12 5h1M1 6h1M12 6h1M14 6h1M1 7h1M1 8h1M4 8h2M10 8h1M12 8h1M1 9h1M3 9h1M5 9h1M12 9h1M14 9h1M1 10h1M4 10h1M7 10h1M12 10h1M1 11h1M12 11h1M14 12h1M1 13h1M7 13h4M13 13h2M1 14h1M3 14h2M6 14h2M11 14h1M14 14h1" />
<path stroke="#131113" d="M2 1h1M9 1h1M2 2h1M14 3h1M14 7h1M2 8h2M7 11h1M11 13h1M9 14h1M13 14h1" />
<path stroke="#131012" d="M3 1h1" />
<path stroke="#131112" d="M6 1h1" />
<path stroke="#111312" d="M11 1h1" />
<path stroke="#111311" d="M12 1h1" />
<path stroke="#121313" d="M14 1h1M6 3h1M7 5h1M10 7h1" />
<path stroke="#f3f2f2" d="M0 2h1M9 2h1M0 3h1M12 3h1M15 4h1M3 6h2M2 7h1M11 9h1M13 10h1M2 11h1M0 15h1M3 15h1M7 15h1" />
<path stroke="#f0f2f3" d="M8 2h1M0 5h1M5 10h1M11 12h1" />
<path stroke="#f2f1f2" d="M10 2h1M11 15h1" />
<path stroke="#f0f2f0" d="M12 2h1M15 11h1M4 13h1" />
<path stroke="#131312" d="M1 3h1M10 3h1M2 6h1M14 8h1M7 9h1M10 10h1M10 12h1M2 14h1M5 14h1" />
<path stroke="#131311" d="M8 3h1M10 9h1M5 11h1M12 12h1M8 14h1" />
<path stroke="#121111" d="M9 3h1" />
<path stroke="#121212" d="M11 3h1" />
<path stroke="#101113" d="M2 4h1" />
<path stroke="#f2f1f0" d="M6 4h1" />
<path stroke="#f1f2f2" d="M8 4h1M9 11h1" />
<path stroke="#111313" d="M12 4h1M1 5h1M3 5h1M14 5h1M10 6h1M12 7h1M4 9h1M12 13h1M10 14h1" />
<path stroke="#121311" d="M14 4h1" />
<path stroke="#121312" d="M5 5h1" />
<path stroke="#f2f3f0" d="M15 6h1M14 15h1" />
<path stroke="#131213" d="M6 8h1M6 10h1M14 10h1M10 11h1M1 12h1M7 12h1M12 14h1" />
<path stroke="#f2f0f0" d="M7 8h1M2 10h1" />
<path stroke="#f0f3f2" d="M9 8h1" />
<path stroke="#f3f3f2" d="M11 8h1" />
<path stroke="#f3f0f2" d="M8 9h1" />
<path stroke="#f3f2f3" d="M9 9h1" />
<path stroke="#111213" d="M6 11h1M6 12h1M9 12h1" />
<path stroke="#f3f1f0" d="M13 11h1" />
<path stroke="#111111" d="M14 11h1" />
<path stroke="#f3f2f0" d="M13 15h1" />
</svg>