<svg xmlns="http://www.w3.org/2000/svg" viewBox="0 -0.5 16 16" shape-rendering="crispEdges">
<metadata>Made with Pixels to Svg https://codepen.io/shshaw/pen/XbxvNj</metadata>
<path stroke="#f2f2f2" d="M0 0h8M10 0h1M12 0h4M15 1h1M0 2h1M7 2h2M0 3h1M8 3h1M0 4h1M9 4h1M11 5h1M0 6h1M14 6h2M0 7h1M8 7h1M13 7h1M15 7h1M15 9h1M6 10h1M15 10h1M5 11h1M15 11h1M0 12h1M0 14h1M15 14h1M0 15h2M3 15h1M5 15h2M12 15h2M15 15h1" />
<path stroke="#f0f2f2" d="M8 0h1M0 5h1M0 8h1M0 9h1" />
<path stroke="#f2f2f3" d="M9 0h1M15 3h1M15 5h1M0 13h1" />
<path stroke="#f2f0f2" d="M11 0h1M0 1h1M9 6h1M7 9h1M8 15h2" />
<path stroke="#131313" d="M1 1h1M3 1h1M10 1h5M3 2h4M9 2h1M13 2h2M1 3h1M3 3h2M7 3h1M12 3h3M3 4h4M8 4h1M11 4h2M4 5h2M7 5h2M12 5h3M1 6h2M4 6h1M6 6h2M11 6h1M13 6h1M3 7h1M7 7h1M9 7h1M11 7h2M14 7h1M1 8h4M6 8h2M9 8h2M12 8h3M1 9h1M3 9h1M5 9h2M8 9h2M13 9h2M5 10h1M7 10h1M10 10h5M1 11h1M4 11h1M6 11h1M8 11h1M10 11h2M13 11h2M1 12h4M6 12h1M8 12h1M11 12h1M14 12h1M1 13h1M8 13h7M1 14h7M10 14h1M12 14h3" />
<path stroke="#131113" d="M2 1h1M2 3h1M1 5h2M10 7h1M1 10h1M3 10h1M8 10h2M9 11h1M5 12h1M10 12h1" />
<path stroke="#121311" d="M4 1h1" />
<path stroke="#111313" d="M5 1h1M7 1h1M5 7h1M2 9h1M3 11h1M12 12h2M2 13h1" />
<path stroke="#131311" d="M6 1h1M8 1h1M11 3h1M7 4h1M6 5h1M2 7h1M4 7h1M11 8h1M2 11h1M7 11h1M12 11h1M9 12h1M8 14h1M11 14h1" />
<path stroke="#f2f3f2" d="M9 1h1M15 4h1M10 5h1M0 11h1M2 15h1M10 15h1" />
<path stroke="#131312" d="M1 2h1M5 3h1M9 3h1M10 4h1M13 4h1M3 6h1M8 6h1M10 9h1M4 10h1M3 13h1" />
<path stroke="#111113" d="M2 2h1" />
<path stroke="#131213" d="M10 2h1M6 3h1M1 4h1M9 5h1M5 6h1M10 6h1M5 8h1M4 9h1M11 9h1M7 12h1M4 13h1M7 13h1" />
<path stroke="#131211" d="M11 2h1M9 14h1" />
<path stroke="#121313" d="M12 2h1M2 4h1M14 4h1M1 7h1M6 7h1M12 9h1" />
<path stroke="#f3f2f2" d="M15 2h1M15 13h1M7 15h1M14 15h1" />
<path stroke="#111311" d="M10 3h1" />
<path stroke="#121112" d="M3 5h1" />
<path stroke="#f3f2f3" d="M12 6h1" />
<path stroke="#f0f0f2" d="M8 8h1" />
<path stroke="#f2f2f0" d="M15 8h1" />
<path stroke="#f2f3f0" d="M0 10h1" />
<path stroke="#101313" d="M2 10h1" />
<path stroke="#f0f2f0" d="M15 12h1" />
<path stroke="#131212" d="M5 13h2" />
<path stroke="#f3f0f2" d="M4 15h1" />
<path stroke="#f2f3f3" d="M11 15h1" />
</svg>