<svg xmlns="http://www.w3.org/2000/svg" viewBox="0 -0.5 16 16" shape-rendering="crispEdges">
<metadata>Made with Pixels to Svg https://codepen.io/shshaw/pen/XbxvNj</metadata>
<path stroke="#f0f2f3" d="M0 0h1M14 15h1" />
<path stroke="#f2f2f2" d="M1 0h2M4 0h3M9 0h3M13 0h1M0 1h1M11 2h1M13 2h1M0 3h1M12 3h1M13 4h1M15 5h1M9 6h1M8 7h1M15 7h1M7 8h1M15 8h1M0 9h1M6 9h1M15 9h1M0 10h1M5 10h1M15 10h1M4 11h1M0 12h1M3 12h1M0 13h1M2 13h1M15 13h1M0 14h1M0 15h3M6 15h2M13 15h1" />
<path stroke="#f2f0f2" d="M3 0h1M8 0h1M14 0h1M15 4h1M15 12h1M4 15h1" />
<path stroke="#f2f1f3" d="M7 0h1" />
<path stroke="#f2f3f2" d="M12 0h1M15 1h1M12 2h1M13 3h1M0 6h1M0 8h1M3 15h1M5 15h1" />
<path stroke="#f2f2f3" d="M15 0h1M12 4h1M0 7h1M8 15h1M11 15h1" />
<path stroke="#131313" d="M1 1h1M5 1h2M9 1h1M11 1h1M13 1h1M4 2h2M7 2h2M10 2h1M14 2h1M3 3h1M6 3h1M9 3h2M14 3h1M7 4h1M9 4h2M2 5h1M4 5h1M6 5h2M9 5h1M11 5h2M2 6h1M4 6h1M7 6h1M10 6h1M1 7h2M4 7h1M6 7h1M12 7h2M4 8h2M10 8h1M12 8h2M2 9h2M7 9h3M13 9h1M4 10h1M7 10h1M9 10h1M12 10h1M14 10h1M1 11h3M5 11h3M12 11h2M4 12h2M7 12h2M10 12h3M14 12h1M1 13h1M5 13h3M9 13h1M11 13h2M1 14h1M6 14h3M11 14h1M14 14h1" />
<path stroke="#131212" d="M2 1h1M9 12h1" />
<path stroke="#121311" d="M3 1h1M1 2h1M7 7h1M8 10h1" />
<path stroke="#101311" d="M4 1h1" />
<path stroke="#121313" d="M7 1h1M14 1h1M6 2h1M3 5h1M6 6h1M11 6h1M14 7h1M1 8h1M10 9h1M3 10h1M10 10h1M8 11h1" />
<path stroke="#131312" d="M8 1h1M14 4h1M13 5h1M14 6h1M3 8h1M8 8h1M14 8h1M4 9h1M1 10h2M13 12h1M4 13h1M13 13h1M3 14h1" />
<path stroke="#131113" d="M10 1h1M2 4h1M1 5h1M3 7h1M9 7h1M2 8h1M11 8h1M1 9h1M12 9h1M10 13h1M2 14h1" />
<path stroke="#101313" d="M12 1h1M3 2h1M14 5h1M11 9h1" />
<path stroke="#f1f2f0" d="M0 2h1" />
<path stroke="#131311" d="M2 2h1M1 4h1M5 4h1M5 5h1M8 6h1M5 9h1M14 9h1M11 10h1M9 11h1M14 11h1M3 13h1M9 14h1" />
<path stroke="#111313" d="M9 2h1M2 3h1M5 3h1M8 3h1M8 5h1M5 7h1M11 7h1M6 10h1M13 10h1M10 11h1M8 13h1M10 14h1M13 14h1" />
<path stroke="#f0f2f2" d="M15 2h1M10 5h1M0 11h1M9 15h1M15 15h1" />
<path stroke="#131213" d="M1 3h1M3 4h1M6 4h1M1 6h1M3 6h1M12 6h1M10 7h1M6 8h1M2 12h1M6 12h1M14 13h1" />
<path stroke="#131011" d="M4 3h1" />
<path stroke="#131310" d="M7 3h1" />
<path stroke="#f0f3f2" d="M11 3h1" />
<path stroke="#f3f2f2" d="M15 3h1M0 4h1" />
<path stroke="#111212" d="M4 4h1" />
<path stroke="#111311" d="M8 4h1M4 14h1" />
<path stroke="#f0f0f2" d="M11 4h1M15 6h1" />
<path stroke="#f3f2f0" d="M0 5h1M15 11h1" />
<path stroke="#121312" d="M5 6h1" />
<path stroke="#111213" d="M13 6h1" />
<path stroke="#101113" d="M9 8h1" />
<path stroke="#101213" d="M11 11h1" />
<path stroke="#111113" d="M1 12h1" />
<path stroke="#131012" d="M5 14h1" />
<path stroke="#131112" d="M12 14h1" />
<path stroke="#f3f2f3" d="M15 14h1" />
<path stroke="#f2f2f0" d="M10 15h1" />
<path stroke="#f1f3f2" d="M12 15h1" />
</svg>