<svg xmlns="http://www.w3.org/2000/svg" viewBox="0 -0.5 16 16" shape-rendering="crispEdges">
<metadata>Made with Pixels to Svg https://codepen.io/shshaw/pen/XbxvNj</metadata>
<path stroke="#f2f2f2" d="M0 0h7M8 0h8M0 1h1M15 1h1M0 2h1M4 2h1M12 2h1M15 2h1M0 3h1M5 3h7M15 3h1M12 4h1M15 4h1M0 5h1M9 5h1M12 5h1M15 5h1M0 6h1M5 6h4M12 6h1M15 6h1M0 7h1M7 7h2M12 7h2M0 8h1M7 8h1M15 8h1M9 9h1M15 9h1M0 10h1M2 10h1M10 10h1M15 10h1M0 11h1M4 11h1M15 11h1M0 12h1M3 12h1M5 12h2M15 12h1M0 13h1M2 13h1M6 13h1M15 13h1M0 15h7M8 15h3M12 15h2" />
<path stroke="#f2f2f3" d="M7 0h1M0 9h1M5 10h1M0 14h1" />
<path stroke="#131313" d="M1 1h2M4 1h1M6 1h3M10 1h5M1 2h1M5 2h7M13 2h1M2 3h3M14 3h1M1 4h9M11 4h1M14 4h1M1 5h8M10 5h2M14 5h1M1 6h4M9 6h3M13 6h2M1 7h6M9 7h3M14 7h1M1 8h2M4 8h3M8 8h1M10 8h5M1 9h5M7 9h2M10 9h5M1 10h1M4 10h1M6 10h4M11 10h2M14 10h1M1 11h3M5 11h8M1 12h2M4 12h1M7 12h8M1 13h1M3 13h1M9 13h6M1 14h4M6 14h4M11 14h2M14 14h1" />
<path stroke="#131311" d="M3 1h1M3 2h1M3 8h1M8 13h1" />
<path stroke="#121313" d="M5 1h1M9 1h1M13 4h1" />
<path stroke="#131312" d="M2 2h1M13 3h1M13 5h1M13 11h2M10 14h1" />
<path stroke="#131213" d="M14 2h1M13 10h1M13 14h1" />
<path stroke="#111313" d="M1 3h1M5 13h1M7 13h1M5 14h1" />
<path stroke="#f2f0f2" d="M12 3h1M15 15h1" />
<path stroke="#f3f2f2" d="M0 4h1M9 8h1M6 9h1M3 10h1M7 15h1M11 15h1" />
<path stroke="#f2f3f2" d="M10 4h1M15 7h1" />
<path stroke="#131113" d="M4 13h1" />
<path stroke="#f0f2f2" d="M15 14h1M14 15h1" />
</svg>