<svg xmlns="http://www.w3.org/2000/svg" viewBox="0 -0.5 24 30" shape-rendering="crispEdges">
<metadata>Made with Pixels to Svg https://codepen.io/shshaw/pen/XbxvNj</metadata>
<path stroke="#131313" d="M0 0h7M8 0h7M16 0h3M20 0h3M0 1h1M2 1h8M11 1h6M18 1h6M0 2h2M3 2h2M6 2h1M8 2h12M22 2h2M0 3h2M5 3h15M22 3h2M0 4h3M5 4h3M9 4h9M20 4h1M23 4h1M0 5h1M2 5h1M6 5h4M11 5h2M14 5h2M20 5h2M23 5h1M0 6h4M7 6h3M19 6h1M21 6h3M1 7h3M5 7h1M20 7h4M0 8h3M4 8h1M21 8h3M0 9h2M3 9h1M22 9h2M0 10h3M11 10h1M15 10h1M22 10h2M0 11h2M7 11h3M11 11h1M14 11h6M22 11h2M0 12h2M4 12h2M7 12h2M10 12h2M14 12h3M18 12h3M23 12h1M0 13h12M15 13h1M17 13h1M19 13h2M22 13h2M0 14h6M9 14h6M20 14h3M0 15h2M3 15h2M9 15h7M20 15h4M0 16h5M9 16h4M14 16h2M19 16h5M0 17h4M5 17h2M8 17h6M17 17h3M21 17h3M0 18h2M4 18h9M14 18h10M1 19h13M15 19h1M18 19h6M0 20h10M11 20h1M13 20h6M20 20h4M0 21h10M15 21h1M17 21h7M0 22h8M11 22h3M17 22h4M22 22h2M1 23h1M3 23h1M5 23h2M9 23h5M15 23h1M17 23h2M20 23h4M0 24h7M8 24h8M18 24h6M0 25h2M3 25h1M5 25h7M13 25h11M0 26h8M9 26h8M18 26h3M22 26h2M0 27h1M2 27h1M4 27h1M6 27h1M8 27h4M14 27h1M16 27h1M18 27h5M0 28h15M16 28h5M22 28h2M1 29h2M4 29h4M9 29h5M15 29h5M21 29h3" />
<path stroke="#111313" d="M7 0h1M7 2h1M21 4h1M1 5h1M10 5h1M20 6h1M3 8h1M2 9h1M16 13h1M23 14h1M13 18h1M0 19h1M14 19h1M10 20h1M19 20h1M16 21h1M12 27h2M23 27h1M0 29h1" />
<path stroke="#131311" d="M15 0h1M8 4h1M22 12h1M3 18h1M4 23h1M3 27h1M5 27h1" />
<path stroke="#131113" d="M19 0h1M23 0h1M1 1h1M14 10h1M15 14h1M16 19h2M21 22h1M12 25h1M8 26h1M15 27h1M21 28h1" />
<path stroke="#131212" d="M10 1h1" />
<path stroke="#131312" d="M17 1h1M0 7h1M10 10h1M6 12h1M14 13h1M18 13h1M21 13h1M7 17h1M15 17h2M2 18h1M12 20h1M2 23h1M14 23h1M19 23h1M4 25h1M21 26h1M1 27h1M8 29h1" />
<path stroke="#47dcd5" d="M2 2h1M20 2h2M2 3h2M21 3h1M4 4h1M18 4h2M3 5h3M17 5h1M19 5h1M4 6h3M10 6h5M16 6h3M6 7h1M8 7h12M5 8h9M15 8h1M17 8h4M4 9h1M6 9h8M16 9h6M3 10h3M7 10h3M12 10h2M17 10h5M2 11h5M12 11h2M3 12h1M12 12h2M21 12h1M12 13h1M7 14h2M16 14h4M6 15h3M16 15h4M7 16h2M16 16h3M10 21h5M8 22h2M15 22h2M7 23h2M7 24h1M16 24h2" />
<path stroke="#111113" d="M5 2h1" />
<path stroke="#131213" d="M4 3h1M22 4h1M16 5h1M2 15h1M5 15h1M4 17h1M2 25h1M17 26h1M7 27h1M17 27h1M14 29h1" />
<path stroke="#47dcd7" d="M20 3h1M18 5h1M14 8h1M16 8h1" />
<path stroke="#47ded5" d="M3 4h1M15 6h1M14 9h1M13 13h1M10 22h1" />
<path stroke="#121313" d="M13 5h1M22 5h1M4 7h1M10 11h1M9 12h1M17 12h1M5 16h1M0 23h1M15 28h1M3 29h1M20 29h1" />
<path stroke="#45ddd5" d="M7 7h1" />
<path stroke="#47ddd5" d="M5 9h1M21 11h1" />
<path stroke="#45dcd5" d="M15 9h1M6 10h1M16 23h1" />
<path stroke="#111312" d="M16 10h1" />
<path stroke="#47dcd4" d="M20 11h1" />
<path stroke="#46dcd5" d="M2 12h1M6 14h1M6 16h1M14 22h1" />
<path stroke="#111310" d="M13 16h1" />
<path stroke="#121113" d="M14 17h1" />
<path stroke="#101313" d="M20 17h1" />
</svg>