<svg xmlns="http://www.w3.org/2000/svg" viewBox="0 -0.5 24 30" shape-rendering="crispEdges">
<metadata>Made with Pixels to Svg https://codepen.io/shshaw/pen/XbxvNj</metadata>
<path stroke="#131313" d="M0 0h7M9 0h14M0 1h24M0 2h2M3 2h17M22 2h2M0 3h2M4 3h12M17 3h3M22 3h2M0 4h3M5 4h10M16 4h1M20 4h4M0 5h3M6 5h11M20 5h4M0 6h4M7 6h3M20 6h4M0 7h6M20 7h4M0 8h4M21 8h1M23 8h1M0 9h4M22 9h2M0 10h3M10 10h2M14 10h3M22 10h1M0 11h1M8 11h4M14 11h6M22 11h2M0 12h2M4 12h8M14 12h7M22 12h2M0 13h2M4 13h8M14 13h2M18 13h6M0 14h6M8 14h8M19 14h4M0 15h6M9 15h7M19 15h2M22 15h2M0 16h7M9 16h7M19 16h5M0 17h15M16 17h8M0 18h24M1 19h23M0 20h16M17 20h7M0 21h15M16 21h8M0 22h6M18 22h6M0 23h18M19 23h5M0 24h4M5 24h1M7 24h13M21 24h3M0 25h21M22 25h2M0 26h2M3 26h3M7 26h1M9 26h7M17 26h7M0 27h3M4 27h15M20 27h3M0 28h24M0 29h24" />
<path stroke="#121313" d="M7 0h1M7 11h1M15 17h1M23 27h1" />
<path stroke="#131312" d="M8 0h1M17 4h1M19 27h1" />
<path stroke="#131213" d="M23 0h1M19 6h1M4 8h1M21 15h1M8 26h1M3 27h1" />
<path stroke="#f3fa9e" d="M2 2h1M20 2h2M2 3h2M20 3h2M3 4h2M18 4h2M4 5h2M17 5h3M4 6h3M10 6h9M6 7h14M5 8h16M4 9h1M6 9h16M3 10h7M12 10h2M17 10h5M2 11h5M12 11h2M20 11h2M2 12h2M12 12h2M21 12h1M12 13h2M16 13h2M6 14h2M16 14h3M6 15h3M16 15h3M7 16h2M16 16h3M6 22h11" />
<path stroke="#111313" d="M16 3h1M15 4h1M22 8h1M23 10h1M1 11h1M20 24h1M21 25h1" />
<path stroke="#f3fa9c" d="M3 5h1" />
<path stroke="#f1fa9e" d="M5 9h1" />
<path stroke="#131113" d="M2 13h2M15 21h1M18 23h1M16 26h1" />
<path stroke="#131311" d="M23 14h1M0 19h1M16 20h1M6 24h1M2 26h1M6 26h1" />
<path stroke="#f3fa9f" d="M17 22h1" />
<path stroke="#121312" d="M4 24h1" />
</svg>