<svg xmlns="http://www.w3.org/2000/svg" viewBox="0 -0.5 24 30" shape-rendering="crispEdges">
<metadata>Made with Pixels to Svg https://codepen.io/shshaw/pen/XbxvNj</metadata>
<path stroke="#131313" d="M0 0h6M7 0h17M1 1h2M4 1h20M0 2h2M4 2h1M6 2h9M16 2h3M22 2h2M0 3h1M5 3h6M13 3h7M23 3h1M1 4h2M5 4h13M20 4h4M0 5h3M6 5h2M9 5h1M12 5h5M20 5h3M0 6h2M8 6h2M19 6h5M0 7h6M20 7h4M0 8h5M21 8h3M1 9h2M22 9h2M0 10h3M10 10h2M14 10h2M22 10h2M0 11h2M7 11h5M14 11h2M17 11h2M22 11h2M0 12h1M6 12h4M14 12h5M20 12h1M22 12h2M0 13h6M7 13h5M14 13h2M18 13h6M0 14h6M8 14h8M19 14h5M1 15h1M4 15h2M9 15h7M19 15h1M21 15h3M0 16h7M9 16h1M12 16h2M15 16h1M19 16h5M0 17h9M10 17h6M17 17h7M0 18h2M3 18h11M15 18h9M0 19h8M9 19h9M19 19h2M22 19h2M0 20h2M4 20h2M7 20h17M0 21h2M3 21h1M5 21h19M0 22h6M18 22h6M0 23h1M2 23h2M5 23h2M8 23h3M12 23h5M19 23h4M0 24h13M14 24h9M0 25h7M8 25h1M10 25h14M0 26h3M4 26h14M19 26h5M0 27h11M12 27h12M0 28h4M5 28h19M0 29h2M3 29h4M8 29h4M13 29h9M23 29h1" />
<path stroke="#131311" d="M6 0h1M12 3h1M2 6h1M16 11h1M19 12h1M0 15h1M4 21h1M13 24h1M7 25h1M22 29h1" />
<path stroke="#131312" d="M0 1h1M19 2h1M11 3h1M4 12h1M11 12h1M10 16h1M2 18h1M2 20h1M6 20h1M2 21h1M1 23h1M12 29h1" />
<path stroke="#111312" d="M3 1h1" />
<path stroke="#f00053" d="M2 2h1M20 2h2M2 3h2M20 3h2M3 4h2M18 4h2M3 5h3M17 5h3M4 6h3M10 6h4M15 6h3M6 7h3M10 7h7M18 7h2M7 8h11M19 8h2M4 9h11M16 9h6M3 10h4M8 10h2M12 10h2M17 10h3M21 10h1M3 11h4M12 11h2M20 11h2M2 12h2M13 12h1M21 12h1M13 13h1M16 13h2M6 14h1M16 14h3M6 15h3M16 15h3M8 16h1M16 16h3M7 22h2M10 22h6M17 22h1" />
<path stroke="#111313" d="M3 2h1M15 2h1M8 5h1M11 5h1M0 9h1M3 9h1M5 12h1M10 12h1M20 15h1M16 17h1M3 26h1M4 28h1" />
<path stroke="#131113" d="M5 2h1M4 3h1M22 3h1M10 5h1M3 6h1M19 11h1M3 20h1M4 23h1M11 23h1M18 23h1M18 26h1M11 27h1M2 29h1" />
<path stroke="#131213" d="M1 3h1M0 4h1M7 6h1M11 16h1M14 16h1M9 17h1M14 18h1M8 19h1M18 19h1M9 25h1M7 29h1" />
<path stroke="#121313" d="M23 5h1M16 10h1M1 12h1M6 13h1M2 15h1M7 23h1M23 24h1" />
<path stroke="#f00153" d="M14 6h1M9 7h1M15 9h1M2 11h1M12 12h1M6 22h1" />
<path stroke="#f00051" d="M18 6h1M5 8h1M12 13h1" />
<path stroke="#f10053" d="M17 7h1" />
<path stroke="#f00052" d="M6 8h1M7 14h1" />
<path stroke="#f20053" d="M18 8h1M20 10h1M9 22h1" />
<path stroke="#f00251" d="M7 10h1" />
<path stroke="#131112" d="M3 15h1M23 23h1" />
<path stroke="#f00253" d="M7 16h1" />
<path stroke="#131111" d="M21 19h1" />
<path stroke="#f00050" d="M16 22h1" />
<path stroke="#111311" d="M17 23h1" />
</svg>