<svg xmlns="http://www.w3.org/2000/svg" viewBox="0 -0.5 24 30" shape-rendering="crispEdges">
<metadata>Made with Pixels to Svg https://codepen.io/shshaw/pen/XbxvNj</metadata>
<path stroke="#131313" d="M0 0h12M13 0h2M16 0h3M20 0h2M23 0h1M1 1h3M5 1h6M12 1h2M17 1h4M22 1h2M3 2h9M13 2h3M17 2h3M22 2h1M0 3h2M4 3h4M9 3h6M16 3h1M18 3h2M22 3h2M0 4h2M5 4h13M20 4h4M0 5h3M6 5h11M20 5h1M22 5h1M0 6h4M7 6h3M20 6h3M0 7h6M20 7h4M0 8h1M2 8h3M21 8h2M0 9h1M2 9h2M22 9h2M0 10h3M10 10h1M14 10h3M23 10h1M0 11h2M7 11h5M14 11h2M18 11h2M22 11h2M0 12h2M4 12h8M14 12h7M22 12h2M0 13h7M10 13h2M14 13h10M0 14h1M2 14h3M10 14h6M20 14h4M0 15h4M5 15h1M9 15h7M19 15h3M23 15h1M0 16h1M2 16h4M9 16h7M21 16h3M1 17h16M18 17h5M0 18h2M3 18h15M19 18h2M22 18h2M0 19h3M4 19h7M12 19h3M16 19h8M0 20h2M4 20h3M8 20h5M14 20h3M18 20h4M0 21h2M3 21h4M8 21h10M19 21h5M0 22h6M8 22h9M19 22h1M21 22h3M2 23h1M4 23h3M8 23h9M18 23h2M21 23h3M0 24h2M3 24h3M10 24h6M18 24h6M0 25h6M8 25h1M17 25h4M23 25h1M0 26h11M12 26h5M18 26h6M0 27h12M13 27h11M0 28h1M2 28h3M6 28h17M0 29h3M4 29h5M11 29h2M14 29h6M21 29h3" />
<path stroke="#131113" d="M12 0h1M22 0h1M23 8h1M17 11h1M7 13h2M5 14h1M9 14h1M22 15h1M19 16h1M17 20h1M2 21h1M1 23h1M6 25h1" />
<path stroke="#131213" d="M15 0h1M21 1h1M23 2h1M21 5h1M16 11h1M20 16h1M18 18h1M15 19h1M13 20h1M7 21h1M6 24h1M21 25h1M5 28h1" />
<path stroke="#131312" d="M19 0h1M0 1h1M8 3h1M23 5h1M1 16h1M17 17h1M23 17h1M3 19h1M2 24h1M10 29h1" />
<path stroke="#121313" d="M4 1h1M0 2h1M15 3h1M11 10h1M11 19h1M2 20h1M23 20h1M7 25h1M22 25h1M23 28h1M9 29h1M13 29h1" />
<path stroke="#111313" d="M11 1h1M14 1h1M17 3h1M19 6h1M23 6h1M1 8h1M19 14h1M21 18h1M22 20h1M0 23h1M3 23h1M20 23h1M17 26h1M12 27h1M1 28h1" />
<path stroke="#131311" d="M15 1h2M16 2h1M2 4h1M9 13h1M1 14h1M4 15h1M0 17h1M2 18h1M3 20h1M20 22h1M11 26h1M20 29h1" />
<path stroke="#131112" d="M1 2h1" />
<path stroke="#f00053" d="M2 2h1M20 2h2M2 3h2M20 3h2M3 4h2M18 4h2M3 5h3M17 5h3M4 6h3M11 6h8M6 7h1M8 7h4M13 7h3M17 7h3M5 8h2M8 8h2M11 8h10M4 9h5M11 9h2M14 9h4M19 9h3M3 10h7M12 10h2M17 10h5M2 11h5M12 11h1M20 11h2M2 12h1M12 12h2M21 12h1M12 13h2M6 14h3M16 14h3M6 15h3M16 15h1M18 15h1M6 16h3M16 16h3M18 21h1M6 22h2M17 22h2M7 23h1M17 23h1M7 24h2M16 24h2M9 25h6M16 25h1" />
<path stroke="#121311" d="M12 2h1" />
<path stroke="#f20053" d="M10 6h1M12 7h1M10 9h1M3 12h1" />
<path stroke="#f00052" d="M7 7h1M17 15h1" />
<path stroke="#f00051" d="M16 7h1M18 9h1" />
<path stroke="#f00153" d="M7 8h1M9 9h1" />
<path stroke="#f10053" d="M10 8h1M13 11h1M15 25h1" />
<path stroke="#131211" d="M1 9h1M3 29h1" />
<path stroke="#f20253" d="M13 9h1" />
<path stroke="#101313" d="M22 10h1" />
<path stroke="#121312" d="M7 20h1" />
<path stroke="#f00253" d="M9 24h1" />
</svg>