<svg xmlns="http://www.w3.org/2000/svg" viewBox="0 -0.5 24 30" shape-rendering="crispEdges">
<metadata>Made with Pixels to Svg https://codepen.io/shshaw/pen/XbxvNj</metadata>
<path stroke="#121313" d="M0 0h1M20 0h1M11 1h1M5 2h1M14 4h1M20 5h1M19 6h1M4 7h1M1 11h1M7 12h1M21 12h1M15 14h1M20 14h1M10 16h1M6 17h1M11 18h1M11 20h1M14 20h1M16 20h1M9 21h1M18 23h1M3 24h1M11 24h1M18 24h1M13 26h1M13 28h1" />
<path stroke="#131313" d="M1 0h3M5 0h4M12 0h3M16 0h4M21 0h1M0 1h4M5 1h1M8 1h3M12 1h7M20 1h1M22 1h2M0 2h3M4 2h1M9 2h1M11 2h2M14 2h2M17 2h1M19 2h5M0 3h6M11 3h10M22 3h2M0 4h1M2 4h2M5 4h3M13 4h1M15 4h1M17 4h7M0 5h3M4 5h5M14 5h4M19 5h1M21 5h1M23 5h1M0 6h6M8 6h2M16 6h3M21 6h1M0 7h2M5 7h3M17 7h2M20 7h1M22 7h2M0 8h5M6 8h2M17 8h1M19 8h1M21 8h1M23 8h1M0 9h5M6 9h1M18 9h5M0 10h3M22 10h1M0 11h1M3 11h4M8 11h1M10 11h4M15 11h1M17 11h7M0 12h2M3 12h2M6 12h1M8 12h10M20 12h1M22 12h2M0 13h19M21 13h2M0 14h2M3 14h2M9 14h1M11 14h4M22 14h1M0 15h6M9 15h4M14 15h2M20 15h2M23 15h1M2 16h3M9 16h1M14 16h2M19 16h1M21 16h3M1 17h4M7 17h3M11 17h2M14 17h2M17 17h1M19 17h1M21 17h3M0 18h1M2 18h4M7 18h3M12 18h3M16 18h8M0 19h2M3 19h1M5 19h4M11 19h1M13 19h3M17 19h7M0 20h7M9 20h2M12 20h2M15 20h1M17 20h7M0 21h3M4 21h2M7 21h2M16 21h8M0 22h4M5 22h1M7 22h1M11 22h3M17 22h3M21 22h2M0 23h2M3 23h1M6 23h1M10 23h3M14 23h2M17 23h1M20 23h3M0 24h3M4 24h1M6 24h1M8 24h1M10 24h1M13 24h3M19 24h5M0 25h1M2 25h1M4 25h4M10 25h3M14 25h2M17 25h1M20 25h4M0 26h3M4 26h1M6 26h5M12 26h1M14 26h8M23 26h1M0 27h6M7 27h3M11 27h2M14 27h6M21 27h3M0 28h2M3 28h2M6 28h5M14 28h6M21 28h3M0 29h5M6 29h5M12 29h10" />
<path stroke="#111312" d="M4 0h1" />
<path stroke="#131113" d="M9 0h1M22 0h1M21 1h1M16 2h1M18 2h1M22 8h1M23 10h1M19 13h1M5 14h1M1 16h1M13 16h1M12 19h1M23 23h1M9 24h1M10 27h1M20 27h1" />
<path stroke="#131311" d="M10 0h1M15 0h1M4 1h1M4 4h1M21 7h1M5 8h1M21 10h1M2 11h1M9 11h1M14 11h1M2 12h1M18 12h1M23 13h1M5 16h1M8 20h1M15 21h1M19 23h1M5 24h1M9 25h1M16 25h1M19 25h1M3 26h1M22 26h1M5 28h1M22 29h2" />
<path stroke="#111313" d="M11 0h1M22 5h1M23 6h1M9 7h1M8 8h1M5 9h1M21 14h1M13 15h1M11 16h1M20 16h1M5 17h1M10 17h1M1 18h1M9 19h2M20 22h1M2 23h1M4 23h2M12 24h1M5 26h1" />
<path stroke="#131213" d="M23 0h1M19 1h1M6 3h1M21 3h1M16 4h1M3 5h1M7 6h1M20 6h1M22 6h1M2 7h1M5 12h1M2 14h1M0 16h1M12 16h1M13 17h1M20 17h1M10 18h1M15 18h1M4 19h1M16 19h1M4 22h1M6 22h1M9 23h1M18 25h1M11 26h1M6 27h1M13 27h1M11 28h2M20 28h1M11 29h1" />
<path stroke="#131312" d="M6 1h2M10 2h1M1 4h1M18 5h1M6 6h1M3 7h1M8 7h1M16 7h1M19 7h1M20 8h1M23 9h1M7 11h1M16 11h1M19 12h1M20 13h1M10 14h1M23 14h1M22 15h1M0 17h1M16 17h1M18 17h1M6 21h1M13 23h1M3 25h1M13 25h1M2 28h1M5 29h1" />
<path stroke="#131310" d="M3 2h1" />
<path stroke="#f2f2f2" d="M6 2h3M7 3h4M8 4h3M12 4h1M9 5h2M12 5h2M10 6h1M13 6h3M10 7h3M14 7h2M9 8h1M12 8h5M7 9h1M9 9h9M3 10h2M6 10h11M18 10h3M6 14h3M16 14h1M19 14h1M6 15h1M16 15h3M7 16h2M16 16h3M11 21h4M9 22h2M14 22h3M7 23h1M16 23h1M7 24h1M17 24h1" />
<path stroke="#121113" d="M13 2h1M18 8h1" />
<path stroke="#f2f3f2" d="M11 4h1M11 6h1M13 7h1M18 14h1" />
<path stroke="#f0f2f2" d="M11 5h1M8 9h1M8 23h1" />
<path stroke="#f2f0f2" d="M12 6h1M17 14h1M10 21h1M8 22h1M16 24h1" />
<path stroke="#f2f2f3" d="M10 8h1M5 10h1M8 15h1M6 16h1" />
<path stroke="#f3f2f0" d="M11 8h1" />
<path stroke="#f3f2f2" d="M17 10h1M7 15h1M19 15h1" />
<path stroke="#131111" d="M6 18h1M3 21h1" />
<path stroke="#131112" d="M2 19h1" />
<path stroke="#101313" d="M7 20h1" />
<path stroke="#111311" d="M23 22h1M8 25h1" />
<path stroke="#111213" d="M1 25h1" />
</svg>