<svg xmlns="http://www.w3.org/2000/svg" viewBox="0 -0.5 24 30" shape-rendering="crispEdges">
<metadata>Made with Pixels to Svg https://codepen.io/shshaw/pen/XbxvNj</metadata>
<path stroke="#131313" d="M0 0h14M15 0h9M0 1h23M1 2h5M9 2h15M0 3h7M11 3h13M0 4h8M13 4h11M0 5h9M14 5h10M0 6h10M16 6h2M19 6h2M22 6h2M0 7h10M16 7h8M0 8h9M17 8h7M0 9h7M18 9h6M0 10h3M21 10h3M0 11h23M0 12h24M0 13h24M0 14h6M9 14h7M20 14h4M0 15h6M9 15h7M20 15h4M0 16h6M10 16h6M19 16h5M0 17h10M11 17h13M0 18h24M0 19h22M23 19h1M0 20h24M0 21h2M3 21h7M15 21h9M0 22h8M11 22h3M17 22h7M0 23h7M9 23h7M17 23h7M0 24h7M8 24h8M18 24h6M0 25h24M0 26h24M0 27h16M17 27h7M0 28h24M0 29h14M15 29h4M20 29h4" />
<path stroke="#121313" d="M14 0h1M23 11h1M9 16h1M14 29h1" />
<path stroke="#131213" d="M23 1h1M10 17h1" />
<path stroke="#131113" d="M0 2h1M22 19h1M2 21h1" />
<path stroke="#f3fa9e" d="M6 2h3M7 3h4M8 4h5M9 5h4M10 6h6M11 7h5M10 8h7M7 9h11M3 10h2M6 10h15M6 14h1M8 14h1M16 14h2M19 14h1M6 15h3M17 15h3M6 16h3M16 16h3M10 21h5M8 22h3M14 22h3M7 23h2M16 23h1M7 24h1M16 24h2" />
<path stroke="#f3fa9f" d="M13 5h1" />
<path stroke="#131311" d="M18 6h1M21 6h1M16 27h1" />
<path stroke="#f3fa9c" d="M10 7h1" />
<path stroke="#f3fb9e" d="M9 8h1M18 14h1" />
<path stroke="#f2fa9e" d="M5 10h1" />
<path stroke="#f1fa9e" d="M7 14h1" />
<path stroke="#f3f89e" d="M16 15h1" />
<path stroke="#131312" d="M19 29h1" />
</svg>