<svg xmlns="http://www.w3.org/2000/svg" viewBox="0 -0.5 24 30" shape-rendering="crispEdges">
<metadata>Made with Pixels to Svg https://codepen.io/shshaw/pen/XbxvNj</metadata>
<path stroke="#131313" d="M0 0h1M2 0h10M13 0h5M19 0h3M23 0h1M0 1h1M2 1h3M6 1h5M12 1h1M14 1h3M19 1h1M22 1h2M0 2h5M9 2h7M17 2h2M21 2h3M1 3h3M5 3h2M11 3h1M13 3h8M22 3h2M0 4h5M6 4h2M13 4h3M18 4h5M0 5h1M2 5h2M5 5h2M8 5h1M14 5h4M20 5h3M0 6h8M9 6h1M17 6h2M20 6h4M0 7h2M3 7h1M6 7h2M16 7h2M20 7h2M23 7h1M0 8h9M17 8h3M22 8h2M0 9h3M4 9h1M6 9h1M18 9h6M0 10h1M2 10h1M22 10h2M0 11h1M3 11h1M5 11h3M10 11h1M12 11h10M23 11h1M0 12h2M4 12h3M8 12h4M13 12h8M23 12h1M0 13h4M6 13h8M15 13h1M18 13h6M0 14h2M4 14h2M8 14h3M12 14h4M19 14h5M1 15h5M9 15h7M20 15h2M0 16h1M5 16h2M10 16h3M14 16h2M20 16h4M0 17h9M10 17h9M21 17h3M0 18h1M2 18h7M10 18h6M17 18h1M20 18h2M0 19h3M5 19h4M12 19h1M14 19h1M16 19h6M0 20h13M15 20h1M17 20h7M0 21h2M3 21h1M5 21h3M9 21h1M13 21h3M19 21h4M0 22h2M4 22h2M18 22h5M1 23h5M8 23h8M17 23h7M0 24h2M3 24h1M5 24h1M7 24h4M13 24h4M19 24h3M23 24h1M1 25h6M8 25h5M14 25h2M17 25h3M21 25h2M0 26h1M2 26h5M10 26h4M16 26h3M20 26h3M0 27h18M20 27h4M0 28h6M8 28h6M15 28h5M21 28h1M23 28h1M0 29h7M8 29h13M22 29h2" />
<path stroke="#121313" d="M1 0h1M22 0h1M18 1h1M4 7h1M8 7h1M22 7h1M21 8h1M3 9h1M1 10h1M4 11h1M2 12h1M4 13h1M2 16h1M9 16h1M19 16h1M22 18h1M3 19h1M7 23h1M18 24h1M22 24h1M0 25h1M23 25h1M8 26h1M19 26h1M18 27h2M22 28h1" />
<path stroke="#131213" d="M12 0h1M1 1h1M20 1h1M20 2h1M12 3h1M17 4h1M23 4h1M1 5h1M8 6h1M5 7h1M22 11h1M21 12h1M14 13h1M11 14h1M19 15h1M4 16h1M14 20h1M8 21h1M18 21h1M2 22h1M6 23h1M2 24h1M14 26h1M20 28h1M21 29h1" />
<path stroke="#131311" d="M18 0h1M21 1h1M21 3h1M16 4h1M20 8h1M8 11h1M12 12h1M0 15h1M22 15h1M9 17h1M19 17h1M23 18h1M10 19h1M15 19h1M22 19h1M16 20h1M2 21h1M4 21h1M10 21h1M23 21h1M16 23h1M9 26h1" />
<path stroke="#131111" d="M5 1h1" />
<path stroke="#111313" d="M11 1h1M13 1h1M19 2h1M4 3h1M7 5h1M18 5h1M23 5h1M19 7h1M5 9h1M11 11h1M7 12h1M3 14h1M23 15h1M1 16h1M18 18h1M13 20h1M12 21h1M0 23h1M11 24h1M16 25h1M20 25h1" />
<path stroke="#131113" d="M17 1h1M5 2h1M16 2h1M5 4h1M16 6h1M9 7h1M18 7h1M1 11h1M9 11h1M5 13h1M2 14h1M3 16h1M20 17h1M1 18h1M16 18h1M19 18h1M11 19h1M23 19h1M23 22h1M6 24h1M12 24h1M17 24h1M13 25h1M1 26h1M7 26h1M6 28h1" />
<path stroke="#f00053" d="M6 2h3M8 3h1M10 4h3M9 5h5M10 6h4M15 6h1M10 7h3M14 7h2M11 8h6M7 9h4M12 9h6M3 10h4M8 10h4M13 10h8M16 13h2M6 14h1M16 14h3M6 15h3M17 15h2M8 16h1M16 16h3M6 22h2M12 22h1M14 22h4" />
<path stroke="#131312" d="M0 3h1M19 5h1M19 6h1M2 7h1M21 10h1M2 11h1M22 12h1M13 16h1M9 19h1M11 21h1M16 21h2M7 25h1M14 28h1M7 29h1" />
<path stroke="#f20053" d="M7 3h1M10 3h1M11 9h1M12 10h1M9 22h1" />
<path stroke="#f00153" d="M9 3h1M8 4h1M14 6h1M13 7h1M9 8h1M16 15h1" />
<path stroke="#f00253" d="M9 4h1M10 8h1M11 22h1" />
<path stroke="#111311" d="M4 5h1" />
<path stroke="#f10053" d="M7 10h1M10 22h1" />
<path stroke="#131210" d="M3 12h1" />
<path stroke="#f00052" d="M7 14h1M7 16h1M13 22h1" />
<path stroke="#111213" d="M9 18h1M13 19h1" />
<path stroke="#131211" d="M4 19h1M7 28h1" />
<path stroke="#121311" d="M3 22h1M4 24h1M15 26h1" />
<path stroke="#f00251" d="M8 22h1" />
<path stroke="#111312" d="M23 26h1" />
</svg>