<svg xmlns="http://www.w3.org/2000/svg" viewBox="0 -0.5 24 30" shape-rendering="crispEdges">
<metadata>Made with Pixels to Svg https://codepen.io/shshaw/pen/XbxvNj</metadata>
<path stroke="#131313" d="M0 0h19M20 0h2M23 0h1M0 1h10M11 1h5M18 1h4M23 1h1M1 2h5M9 2h2M12 2h2M15 2h5M21 2h3M0 3h7M11 3h13M0 4h8M13 4h3M18 4h4M23 4h1M0 5h9M14 5h10M0 6h10M16 6h1M18 6h6M0 7h7M8 7h1M17 7h7M0 8h4M5 8h3M17 8h7M0 9h7M18 9h4M23 9h1M1 10h2M21 10h3M0 11h1M2 11h22M0 12h22M23 12h1M0 13h8M9 13h15M0 14h6M10 14h2M13 14h3M19 14h1M21 14h3M0 15h6M9 15h7M19 15h5M0 16h6M9 16h1M11 16h5M19 16h1M21 16h3M0 17h10M11 17h13M0 18h24M0 19h24M0 20h7M8 20h5M14 20h3M18 20h6M0 21h18M19 21h1M21 21h3M2 22h4M8 22h4M13 22h3M19 22h3M0 23h6M8 23h8M19 23h5M0 24h4M5 24h2M10 24h5M18 24h1M21 24h3M0 25h1M2 25h2M6 25h1M8 25h1M17 25h6M0 26h4M5 26h15M22 26h2M0 27h7M8 27h16M0 28h20M21 28h3M0 29h16M18 29h6" />
<path stroke="#111313" d="M19 0h1M11 2h1M17 6h1M9 7h1M4 8h1M8 8h1M12 14h1M20 21h1M0 22h1M12 22h1M22 22h2M16 23h1M5 25h1M20 26h1" />
<path stroke="#131213" d="M22 0h1M16 1h1M7 7h1M22 12h1M9 14h1M10 17h1M1 22h1M15 24h1M17 29h1" />
<path stroke="#121313" d="M10 1h1M22 1h1M14 2h1M20 2h1M7 20h1M13 20h1M6 23h1M4 24h1M16 29h1" />
<path stroke="#131311" d="M17 1h1M22 9h1M10 16h1M20 24h1M7 25h1" />
<path stroke="#131312" d="M0 2h1M20 16h1M17 20h1M16 22h1M19 24h1M4 25h1M23 25h1M4 26h1M21 26h1" />
<path stroke="#f3fa9e" d="M6 2h3M7 3h4M9 4h4M9 5h5M10 6h6M10 7h3M14 7h2M9 8h8M7 9h11M3 10h18M6 14h1M8 14h1M16 14h3M6 15h3M16 15h1M18 15h1M6 16h3M16 16h1M18 21h1M6 22h2M17 22h2M7 23h1M17 23h1M7 24h3M16 24h2M9 25h2M12 25h5" />
<path stroke="#f2fa9e" d="M8 4h1M17 16h1" />
<path stroke="#111113" d="M16 4h1" />
<path stroke="#131113" d="M17 4h1M22 4h1M16 7h1M0 10h1M8 13h1M20 14h1M1 25h1M7 27h1" />
<path stroke="#f3f89e" d="M13 7h1" />
<path stroke="#121113" d="M1 11h1" />
<path stroke="#f3fa9c" d="M7 14h1" />
<path stroke="#f1fa9e" d="M17 15h1M18 16h1" />
<path stroke="#131013" d="M18 23h1" />
<path stroke="#f3fb9e" d="M11 25h1" />
<path stroke="#131211" d="M20 28h1" />
</svg>