<svg xmlns="http://www.w3.org/2000/svg" viewBox="0 -0.5 24 30" shape-rendering="crispEdges">
<metadata>Made with Pixels to Svg https://codepen.io/shshaw/pen/XbxvNj</metadata>
<path stroke="#131213" d="M0 0h1M15 3h1M0 5h1M3 7h1M6 8h1M11 11h1M14 12h1M22 15h1M18 19h1M21 19h1M8 20h1M10 21h1M15 21h1M4 22h1M14 23h1M8 26h1" />
<path stroke="#131313" d="M1 0h4M6 0h3M10 0h10M21 0h2M0 1h1M2 1h21M0 2h2M3 2h1M5 2h1M9 2h7M17 2h2M20 2h2M23 2h1M0 3h3M4 3h3M11 3h1M13 3h2M17 3h7M0 4h2M4 4h4M14 4h5M20 4h4M1 5h1M3 5h2M6 5h3M14 5h7M22 5h2M0 6h10M16 6h1M18 6h2M21 6h2M0 7h2M4 7h4M18 7h1M20 7h4M0 8h4M5 8h1M8 8h1M17 8h7M0 9h7M18 9h1M20 9h4M0 10h1M2 10h1M21 10h1M23 10h1M0 11h11M12 11h2M15 11h9M0 12h10M12 12h2M15 12h9M1 13h1M3 13h7M11 13h2M14 13h1M16 13h1M19 13h2M22 13h2M0 14h3M4 14h2M9 14h1M12 14h4M19 14h1M22 14h2M0 15h2M3 15h3M9 15h1M11 15h3M15 15h1M19 15h3M23 15h1M0 16h4M5 16h1M9 16h5M15 16h1M19 16h5M2 17h4M7 17h3M13 17h11M0 18h8M10 18h4M15 18h1M17 18h1M19 18h5M0 19h7M8 19h7M16 19h2M20 19h1M22 19h2M1 20h3M5 20h3M9 20h3M13 20h1M15 20h7M23 20h1M0 21h4M5 21h5M11 21h4M16 21h1M19 21h1M21 21h3M1 22h3M5 22h1M8 22h4M13 22h2M16 22h1M19 22h5M0 23h7M8 23h1M10 23h1M12 23h2M15 23h2M18 23h6M0 24h1M2 24h5M10 24h1M12 24h4M18 24h4M23 24h1M1 25h8M17 25h4M22 25h2M1 26h4M6 26h2M9 26h5M15 26h8M0 27h1M2 27h5M9 27h1M11 27h2M14 27h3M19 27h1M21 27h3M0 28h1M2 28h2M5 28h4M11 28h6M18 28h1M20 28h4M0 29h15M16 29h3M20 29h3" />
<path stroke="#131311" d="M5 0h1M20 0h1M21 5h1M16 7h1M1 10h1M10 13h1M10 15h1M12 20h1M4 21h1M11 24h1M22 24h1M0 26h1M17 27h1M4 28h1M15 29h1" />
<path stroke="#121313" d="M9 0h1M23 0h1M22 2h1M2 4h1M13 4h1M23 6h1M19 7h1M19 9h1M10 14h1M20 14h1M14 15h1M1 17h1M8 18h2M16 18h1M7 19h1M4 20h1M17 21h1M12 22h1M11 23h1M8 27h1M10 27h1M10 28h1M19 29h1" />
<path stroke="#131113" d="M1 1h1M4 2h1M16 2h1M2 5h1M5 5h1M17 6h1M2 7h1M4 8h1M22 10h1M14 11h1M10 12h1M2 15h1M14 16h1M14 18h1M0 20h1M20 21h1M0 25h1M1 27h1M1 28h1M17 28h1" />
<path stroke="#111113" d="M23 1h1M19 4h1" />
<path stroke="#111313" d="M2 2h1M19 2h1M12 3h1M16 3h1M9 7h1M17 7h1M11 12h1M0 13h1M18 13h1M21 14h1M0 17h1M18 18h1M15 19h1M14 20h1M0 22h1M15 22h1M1 24h1M21 25h1M5 26h1M18 27h1M20 27h1M9 28h1M23 29h1" />
<path stroke="#f00053" d="M6 2h3M7 3h4M8 4h2M11 4h2M9 5h1M11 5h3M10 6h6M10 7h6M9 8h1M11 8h6M7 9h7M17 9h1M3 10h1M5 10h3M9 10h6M16 10h1M18 10h3M6 14h3M16 14h3M6 15h1M8 15h1M16 15h2M6 16h3M16 16h1M18 16h1M18 21h1M6 22h2M17 22h2M7 23h1M7 24h3M16 24h2M10 25h2M13 25h2M16 25h1" />
<path stroke="#131312" d="M3 3h1M20 6h1M15 13h1M17 13h1M3 14h1M11 14h1M4 16h1M6 17h1M10 17h3M19 19h1M22 20h1M14 26h1M13 27h1M19 28h1" />
<path stroke="#131211" d="M3 4h1" />
<path stroke="#f20053" d="M10 4h1M4 10h1M15 10h1M17 16h1" />
<path stroke="#f10053" d="M10 5h1M9 25h1M12 25h1" />
<path stroke="#121211" d="M8 7h1" />
<path stroke="#121312" d="M7 8h1" />
<path stroke="#f00353" d="M10 8h1" />
<path stroke="#f00253" d="M14 9h1" />
<path stroke="#f00153" d="M15 9h1M17 10h1M7 15h1" />
<path stroke="#f00051" d="M16 9h1M17 23h1M15 25h1" />
<path stroke="#f00052" d="M8 10h1M18 15h1" />
<path stroke="#111311" d="M2 13h1" />
<path stroke="#131112" d="M13 13h1M9 23h1" />
<path stroke="#111312" d="M21 13h1M23 26h1" />
<path stroke="#131111" d="M7 27h1" />
</svg>