<svg xmlns="http://www.w3.org/2000/svg" viewBox="0 -0.5 24 30" shape-rendering="crispEdges">
<metadata>Made with Pixels to Svg https://codepen.io/shshaw/pen/XbxvNj</metadata>
<path stroke="#131313" d="M0 0h2M3 0h11M15 0h4M20 0h4M0 1h6M7 1h5M13 1h7M21 1h3M0 2h4M5 2h1M9 2h3M13 2h3M17 2h1M19 2h5M0 3h7M11 3h7M19 3h5M0 4h8M13 4h11M0 5h2M3 5h6M14 5h2M17 5h2M20 5h4M0 6h1M2 6h7M16 6h7M0 7h10M17 7h5M23 7h1M0 8h2M3 8h3M7 8h2M17 8h7M0 9h6M20 9h4M0 10h3M21 10h3M0 11h7M8 11h1M10 11h14M0 12h18M21 12h1M23 12h1M0 13h10M11 13h3M15 13h9M0 14h6M9 14h3M13 14h3M19 14h5M0 15h6M9 15h1M11 15h5M19 15h1M21 15h1M0 16h3M4 16h2M9 16h7M20 16h2M23 16h1M0 17h11M12 17h1M14 17h10M0 18h5M6 18h3M10 18h10M21 18h3M0 19h12M13 19h9M23 19h1M0 20h2M3 20h2M6 20h6M13 20h6M20 20h4M0 21h4M5 21h13M19 21h1M21 21h3M0 22h6M10 22h7M19 22h5M0 23h1M2 23h5M8 23h6M15 23h2M18 23h3M23 23h1M0 24h7M10 24h3M14 24h2M18 24h3M22 24h2M0 25h9M17 25h6M0 26h6M7 26h16M0 27h2M3 27h7M11 27h2M14 27h3M18 27h6M0 28h24M0 29h16M17 29h3M21 29h3" />
<path stroke="#131311" d="M2 0h1M2 8h1M18 12h1M5 20h1M8 22h1M21 23h1M13 27h1" />
<path stroke="#121313" d="M14 0h1M16 2h1M1 6h1M22 7h1M6 9h1M9 11h1M10 15h1M4 21h1M9 22h1M22 23h1M20 29h1" />
<path stroke="#131113" d="M19 0h1M6 1h1M12 2h1M6 8h1M20 12h1M22 12h1M20 15h1M22 15h2M3 16h1M22 16h1M13 17h1M23 25h1M6 26h1M2 27h1M10 27h1" />
<path stroke="#131213" d="M12 1h1M4 2h1M18 2h1M16 7h1M7 11h1M12 14h1M11 17h1M5 18h1M9 18h1M20 18h1M20 21h1" />
<path stroke="#131312" d="M20 1h1M9 6h1M23 6h1M19 12h1M10 13h1M14 13h1M12 19h1M22 19h1M2 20h1M14 23h1M17 27h1M16 29h1" />
<path stroke="#47dcd5" d="M6 2h3M7 3h1M9 3h2M8 4h3M12 4h1M9 5h5M10 6h6M10 7h6M9 8h3M13 8h4M7 9h11M3 10h1M5 10h16M6 14h3M16 14h3M6 15h2M16 15h3M6 16h3M16 16h3M18 21h1M6 22h2M17 22h2M7 23h1M17 23h1M7 24h3M16 24h2M9 25h8" />
<path stroke="#45dcd5" d="M8 3h1" />
<path stroke="#111313" d="M18 3h1M18 9h2M19 16h1M13 24h1M21 24h1" />
<path stroke="#47dcd7" d="M11 4h1M4 10h1M8 15h1" />
<path stroke="#111213" d="M2 5h1M12 20h1" />
<path stroke="#131212" d="M16 5h1" />
<path stroke="#111311" d="M19 5h1M19 20h1M1 23h1" />
<path stroke="#47ded5" d="M12 8h1" />
<path stroke="#111312" d="M23 26h1" />
</svg>