<svg xmlns="http://www.w3.org/2000/svg" viewBox="0 -0.5 24 30" shape-rendering="crispEdges">
<metadata>Made with Pixels to Svg https://codepen.io/shshaw/pen/XbxvNj</metadata>
<path stroke="#131313" d="M0 0h3M4 0h4M9 0h8M18 0h3M22 0h2M0 1h11M12 1h12M0 2h10M11 2h9M21 2h3M0 3h9M11 3h13M0 4h4M5 4h10M16 4h8M0 5h5M6 5h2M10 5h2M14 5h10M0 6h10M15 6h5M21 6h3M0 7h9M15 7h9M0 8h7M16 8h8M0 9h1M2 9h3M9 9h3M17 9h7M0 10h5M8 10h4M14 10h1M18 10h6M0 11h5M9 11h7M17 11h7M0 12h4M7 12h9M17 12h7M1 13h4M6 13h2M9 13h2M12 13h4M17 13h7M0 14h1M3 14h2M6 14h10M17 14h6M0 15h1M2 15h2M6 15h1M13 15h2M17 15h7M0 16h1M3 16h1M6 16h2M9 16h1M12 16h3M16 16h8M0 17h5M6 17h8M18 17h2M22 17h2M0 18h3M4 18h2M7 18h6M15 18h9M0 19h1M2 19h5M10 19h1M14 19h1M16 19h5M22 19h2M1 20h1M5 20h2M13 20h4M18 20h2M21 20h3M0 21h2M3 21h1M8 21h4M14 21h1M17 21h7M0 22h6M8 22h5M16 22h8M1 23h4M8 23h5M14 23h2M17 23h5M0 24h3M4 24h3M8 24h1M10 24h3M15 24h9M0 25h4M5 25h1M8 25h6M15 25h9M0 26h1M2 26h5M15 26h1M17 26h5M23 26h1M0 27h1M3 27h8M12 27h12M0 28h4M5 28h18M0 29h4M5 29h2M8 29h6M15 29h1M17 29h7" />
<path stroke="#121313" d="M3 0h1M21 0h1M10 2h1M8 5h1M5 9h1M17 10h1M2 14h1M23 14h1M15 15h1M5 23h1M16 23h1M4 29h1" />
<path stroke="#131213" d="M8 0h1M17 0h1M11 1h1M15 4h1M1 9h1M1 14h1M1 15h1M2 20h1M6 23h1M6 25h1M1 26h1M22 26h1" />
<path stroke="#131311" d="M20 2h1M4 4h1M5 5h1M7 11h1M10 16h1M16 17h1M20 17h1M15 19h1M0 20h1M0 23h1M9 24h1M23 28h1M7 29h1M14 29h1" />
<path stroke="#131113" d="M9 3h1M20 6h1M4 15h1M4 16h1M17 17h1M9 19h1M3 20h1M17 20h1M2 27h1" />
<path stroke="#131312" d="M10 3h1M9 5h1M12 10h1M8 11h1M0 13h1M1 16h2M21 17h1M3 18h1M21 19h1M20 20h1M4 25h1M11 27h1M16 29h1" />
<path stroke="#f2f2f2" d="M12 5h2M10 6h5M9 7h6M7 8h3M11 8h1M13 8h3M6 9h3M12 9h5M5 10h2M15 10h2M5 11h2M16 11h1M5 12h1M16 12h1M5 13h1M8 13h1M16 13h1M16 14h1M5 15h1M7 15h6M16 15h1M5 16h1M8 16h1M11 16h1M15 16h1M5 17h1M14 17h2M6 18h1M13 18h2M7 19h2M11 19h3M7 20h6M5 21h3M12 21h2M15 21h2M6 22h2M13 22h2M7 23h1M13 23h1M7 24h1M13 24h2M7 25h1M7 26h8" />
<path stroke="#f2f3f2" d="M10 8h1M12 8h1M5 14h1" />
<path stroke="#f3f2f2" d="M7 10h1M15 22h1" />
<path stroke="#111313" d="M13 10h1M4 12h1M6 12h1M4 20h1M2 21h1M23 23h1M3 24h1M16 26h1M1 27h1M4 28h1" />
<path stroke="#f0f2f2" d="M11 13h1" />
<path stroke="#131310" d="M1 19h1" />
<path stroke="#f2f2f3" d="M4 21h1" />
<path stroke="#131013" d="M22 23h1" />
<path stroke="#f2f2f0" d="M14 25h1" />
</svg>