<svg xmlns="http://www.w3.org/2000/svg" viewBox="0 -0.5 24 30" shape-rendering="crispEdges">
<metadata>Made with Pixels to Svg https://codepen.io/shshaw/pen/XbxvNj</metadata>
<path stroke="#131313" d="M0 0h3M4 0h13M18 0h1M20 0h1M22 0h2M0 1h7M9 1h7M17 1h2M20 1h4M0 2h2M3 2h1M5 2h7M15 2h5M22 2h2M0 3h2M5 3h1M8 3h3M12 3h2M17 3h3M22 3h2M0 4h1M2 4h1M5 4h13M20 4h1M23 4h1M0 5h3M7 5h3M11 5h4M16 5h1M20 5h4M0 6h1M2 6h2M9 6h1M19 6h5M0 7h4M20 7h2M1 8h2M4 8h1M21 8h3M0 9h4M23 9h1M1 10h2M10 10h2M14 10h3M22 10h2M0 11h1M7 11h5M14 11h1M16 11h1M18 11h1M22 11h2M0 12h2M4 12h7M16 12h5M22 12h1M0 13h3M4 13h8M15 13h1M19 13h5M1 14h5M9 14h7M20 14h4M0 15h6M9 15h6M20 15h1M22 15h2M0 16h1M2 16h4M9 16h7M20 16h4M2 17h3M6 17h3M10 17h8M19 17h3M23 17h1M1 18h2M4 18h7M12 18h4M17 18h7M0 19h8M9 19h2M12 19h7M20 19h4M0 20h2M3 20h6M10 20h6M17 20h3M21 20h3M0 21h1M2 21h8M15 21h2M18 21h1M20 21h4M0 22h3M4 22h4M11 22h3M17 22h3M21 22h3M1 23h2M4 23h3M9 23h7M18 23h6M0 24h5M6 24h1M8 24h8M18 24h6M0 25h8M9 25h6M16 25h6M23 25h1M0 26h1M2 26h2M7 26h3M11 26h1M13 26h7M21 26h1M23 26h1M0 27h5M6 27h4M11 27h6M18 27h3M22 27h1M0 28h3M4 28h20M0 29h2M6 29h5M13 29h1M15 29h9" />
<path stroke="#131113" d="M3 0h1M21 0h1M7 1h1M4 3h1M7 3h1M15 3h1M21 4h1M8 6h1M0 8h1M3 8h1M16 13h1M18 13h1M21 15h1M1 16h1M5 17h1M0 18h1M16 18h1M2 20h1M9 20h1M17 23h1M12 26h1M3 28h1" />
<path stroke="#131311" d="M17 0h1M12 2h1M22 4h1M15 5h1M22 9h1M15 12h1M14 13h1M17 13h1M0 14h1M0 17h1M9 17h1M11 19h1M8 25h1M15 25h1M5 26h1M10 26h1M20 26h1M10 27h1" />
<path stroke="#131312" d="M19 0h1M4 2h1M11 3h1M6 5h1M23 7h1M11 12h1M14 12h1M23 12h1M19 16h1M19 19h1M1 21h1M22 25h1M1 26h1M4 26h1M6 26h1M21 27h1M5 29h1M12 29h1" />
<path stroke="#121313" d="M8 1h1M14 3h1M10 5h1M5 7h1M22 7h1M3 13h1M15 15h1M18 17h1M20 20h1M17 21h1M3 22h1M20 22h1M0 23h1M23 27h1M4 29h1M11 29h1" />
<path stroke="#131112" d="M16 1h1" />
<path stroke="#111313" d="M19 1h1M13 2h1M6 3h1M1 4h1M7 6h1M4 7h1M1 11h1M19 11h1M11 18h1M16 20h1M5 24h1M17 27h1M2 29h1M14 29h1" />
<path stroke="#f2f2f2" d="M2 2h1M20 2h2M2 3h2M20 3h2M3 4h2M18 4h2M3 5h3M17 5h3M4 6h2M10 6h6M18 6h1M6 7h4M11 7h4M17 7h3M6 8h1M8 8h2M13 8h8M4 9h18M3 10h1M5 10h1M7 10h2M12 10h1M17 10h1M19 10h3M2 11h5M12 11h1M20 11h2M2 12h2M13 12h1M21 12h1M12 13h2M6 14h3M17 14h3M6 15h3M17 15h1M6 16h2M16 16h3M10 21h3M14 21h1M8 22h3M15 22h2M7 23h2M16 23h1M7 24h1M16 24h2" />
<path stroke="#131213" d="M14 2h1M16 3h1M1 6h1M17 11h1M1 17h1M22 17h1M3 18h1M8 19h1M3 23h1M22 26h1M5 27h1M3 29h1" />
<path stroke="#f2f2f0" d="M6 6h1M10 7h1M13 10h1M13 11h1M12 12h1" />
<path stroke="#f3f2f2" d="M16 6h1M7 8h1M16 14h1M16 15h1M8 16h1M13 21h1" />
<path stroke="#f2f2f3" d="M17 6h1M11 8h1M9 10h1M19 15h1" />
<path stroke="#f0f2f2" d="M15 7h1M10 8h1M12 8h1" />
<path stroke="#f2f3f2" d="M16 7h1M5 8h1M6 10h1M18 15h1" />
<path stroke="#131211" d="M0 10h1" />
<path stroke="#f2f0f2" d="M4 10h1M18 10h1M14 22h1" />
<path stroke="#131212" d="M15 11h1" />
<path stroke="#111213" d="M19 21h1" />
</svg>