<svg xmlns="http://www.w3.org/2000/svg" viewBox="0 -0.5 24 30" shape-rendering="crispEdges">
<metadata>Made with Pixels to Svg https://codepen.io/shshaw/pen/XbxvNj</metadata>
<path stroke="#131313" d="M0 0h18M19 0h5M0 1h5M6 1h18M0 2h2M3 2h2M6 2h14M22 2h2M0 3h2M4 3h1M6 3h4M11 3h9M22 3h2M0 4h3M6 4h12M20 4h4M0 5h3M6 5h2M9 5h8M20 5h4M0 6h4M7 6h3M19 6h5M0 7h6M20 7h4M0 8h5M21 8h3M0 9h2M3 9h1M22 9h2M0 10h3M11 10h1M14 10h1M16 10h1M22 10h2M0 11h2M7 11h5M14 11h4M19 11h1M22 11h2M0 12h2M5 12h7M14 12h7M22 12h2M0 13h2M3 13h9M14 13h6M21 13h3M0 14h6M9 14h7M20 14h4M0 15h6M9 15h7M20 15h4M0 16h6M9 16h7M19 16h4M0 17h10M11 17h13M0 18h14M15 18h6M22 18h2M0 19h5M6 19h18M0 20h6M7 20h4M12 20h12M0 21h4M5 21h5M15 21h9M0 22h6M7 22h1M13 22h1M17 22h7M0 23h7M9 23h7M17 23h4M22 23h2M0 24h4M6 24h1M8 24h4M13 24h2M18 24h6M0 25h4M5 25h7M13 25h11M0 26h19M20 26h4M0 27h3M4 27h9M14 27h10M0 28h20M21 28h3M0 29h5M6 29h2M9 29h15" />
<path stroke="#131311" d="M18 0h1M10 3h1M4 12h1M23 16h1M4 21h1M6 22h1M21 23h1" />
<path stroke="#131113" d="M5 1h1M5 2h1M8 5h1M10 17h1M14 18h1M11 22h1M4 24h2" />
<path stroke="#f3fb9e" d="M2 2h1M18 5h1" />
<path stroke="#f3fa9e" d="M20 2h2M2 3h2M20 3h2M3 4h2M18 4h2M3 5h3M17 5h1M19 5h1M4 6h3M11 6h5M17 6h2M6 7h14M5 8h6M12 8h9M4 9h17M3 10h3M7 10h3M12 10h2M17 10h5M2 11h4M12 11h2M20 11h2M2 12h2M12 12h1M21 12h1M12 13h2M6 14h3M16 14h4M6 15h3M16 15h4M6 16h3M16 16h3M10 21h5M8 22h2M14 22h3M7 23h2M16 23h1M7 24h1M16 24h2" />
<path stroke="#131312" d="M5 3h1M15 10h1M12 25h1" />
<path stroke="#131213" d="M5 4h1M2 9h1M2 13h1M21 18h1M6 20h1M19 26h1M3 27h1M13 27h1M20 28h1" />
<path stroke="#f2fa9e" d="M10 6h1M13 12h1" />
<path stroke="#f3fa9c" d="M16 6h1M21 9h1M10 22h1" />
<path stroke="#f3fa9f" d="M11 8h1M6 10h1M6 11h1" />
<path stroke="#111313" d="M10 10h1M18 11h1M11 20h1M12 24h1M15 24h1M4 25h1M5 29h1" />
<path stroke="#121313" d="M20 13h1M5 19h1M12 22h1M8 29h1" />
</svg>