<svg xmlns="http://www.w3.org/2000/svg" viewBox="0 -0.5 24 30" shape-rendering="crispEdges">
<metadata>Made with Pixels to Svg https://codepen.io/shshaw/pen/XbxvNj</metadata>
<path stroke="#131313" d="M0 0h12M13 0h7M21 0h3M0 1h12M13 1h1M15 1h4M20 1h4M0 2h2M3 2h7M11 2h6M18 2h2M22 2h2M0 3h2M4 3h7M13 3h7M22 3h2M0 4h3M5 4h3M9 4h9M20 4h4M0 5h3M6 5h11M20 5h4M0 6h2M3 6h1M7 6h3M19 6h2M22 6h2M0 7h6M20 7h2M23 7h1M0 8h5M21 8h1M23 8h1M0 9h4M22 9h2M0 10h3M10 10h2M14 10h3M22 10h2M0 11h2M7 11h2M10 11h2M14 11h4M19 11h1M22 11h2M0 12h2M4 12h7M14 12h7M23 12h1M0 13h11M16 13h8M1 14h5M9 14h7M20 14h4M0 15h6M9 15h2M12 15h4M20 15h4M0 16h6M9 16h2M12 16h4M19 16h4M0 17h2M3 17h4M8 17h1M10 17h1M12 17h2M15 17h9M0 18h22M23 18h1M0 19h9M10 19h3M14 19h10M0 20h11M12 20h5M18 20h6M0 21h10M15 21h9M0 22h6M7 22h1M11 22h3M17 22h7M0 23h7M9 23h2M12 23h4M17 23h7M0 24h1M2 24h1M4 24h3M8 24h8M19 24h5M0 25h8M9 25h10M20 25h4M0 26h2M3 26h19M23 26h1M0 27h24M0 28h4M5 28h14M20 28h4M0 29h3M4 29h3M8 29h5M14 29h6M21 29h2" />
<path stroke="#131113" d="M12 0h1M19 1h1M10 2h1M11 3h1M8 4h1M2 6h1M21 6h1M9 11h1M22 12h1M11 13h1M0 14h1M6 22h1M3 24h1" />
<path stroke="#131312" d="M20 0h1M12 1h1M17 2h1M22 8h1M18 11h1M11 12h1M14 13h2M23 16h1M7 17h1M17 20h1M2 26h1M19 28h1M3 29h1M7 29h1" />
<path stroke="#111313" d="M14 1h1M12 3h1M14 17h1M11 23h1M1 24h1M22 26h1M4 28h1M20 29h1M23 29h1" />
<path stroke="#f00053" d="M2 2h1M20 2h2M2 3h2M20 3h2M3 4h2M18 4h2M3 5h3M17 5h3M4 6h3M10 6h2M13 6h4M18 6h1M6 7h9M16 7h4M5 8h7M13 8h8M5 9h6M12 9h8M21 9h1M3 10h7M12 10h2M17 10h2M20 10h2M2 11h5M12 11h2M20 11h2M2 12h2M12 12h1M21 12h1M12 13h2M6 14h3M16 14h4M6 15h3M16 15h4M6 16h3M16 16h3M10 21h5M9 22h2M14 22h3M7 23h2M7 24h1M16 24h2" />
<path stroke="#f00153" d="M12 6h1M15 7h1M20 9h1M13 12h1" />
<path stroke="#f00052" d="M17 6h1M19 10h1" />
<path stroke="#131213" d="M22 7h1M11 15h1M2 17h1" />
<path stroke="#f20053" d="M12 8h1" />
<path stroke="#f00253" d="M4 9h1" />
<path stroke="#f00251" d="M11 9h1" />
<path stroke="#121313" d="M11 16h1M9 17h1M9 19h1M11 20h1M8 25h1M19 25h1" />
<path stroke="#131311" d="M11 17h1M22 18h1M13 19h1M18 24h1M13 29h1" />
<path stroke="#f00051" d="M8 22h1M16 23h1" />
</svg>