<svg xmlns="http://www.w3.org/2000/svg" viewBox="0 -0.5 24 30" shape-rendering="crispEdges">
<metadata>Made with Pixels to Svg https://codepen.io/shshaw/pen/XbxvNj</metadata>
<path stroke="#131313" d="M0 0h6M7 0h2M10 0h1M12 0h4M17 0h2M20 0h1M22 0h2M0 1h6M7 1h2M10 1h3M14 1h3M18 1h3M22 1h2M0 2h2M3 2h17M22 2h2M0 3h1M4 3h2M7 3h8M16 3h4M22 3h2M0 4h3M5 4h2M9 4h8M20 4h4M0 5h3M7 5h3M12 5h5M20 5h2M23 5h1M0 6h2M8 6h2M19 6h5M0 7h3M4 7h2M20 7h1M22 7h2M0 8h5M21 8h1M23 8h1M0 9h4M22 9h2M0 10h3M10 10h2M14 10h1M16 10h1M22 10h1M0 11h1M7 11h5M14 11h6M22 11h2M0 12h2M4 12h8M14 12h3M20 12h1M22 12h2M0 13h2M3 13h7M14 13h2M18 13h6M0 14h1M2 14h1M5 14h1M8 14h1M10 14h5M20 14h4M0 15h4M5 15h1M9 15h3M13 15h3M19 15h5M1 16h1M3 16h4M9 16h1M12 16h4M19 16h2M23 16h1M0 17h3M4 17h2M7 17h1M9 17h7M17 17h4M22 17h2M0 18h1M2 18h14M17 18h3M22 18h1M0 19h5M6 19h8M15 19h7M23 19h1M1 20h9M11 20h4M16 20h8M0 21h3M5 21h4M11 21h4M16 21h8M0 22h1M2 22h4M18 22h6M0 23h2M3 23h3M7 23h2M10 23h10M21 23h2M0 24h4M5 24h8M15 24h1M19 24h3M23 24h1M0 25h8M9 25h8M18 25h6M0 26h1M3 26h7M11 26h3M15 26h9M0 27h4M5 27h17M1 28h6M8 28h4M13 28h9M23 28h1M3 29h2M6 29h1M8 29h2M11 29h4M16 29h3M20 29h1" />
<path stroke="#111312" d="M6 0h1M0 16h1M2 29h1" />
<path stroke="#121313" d="M9 0h1M21 0h1M15 3h1M17 4h1M6 5h1M16 18h1M21 18h1M23 18h1M14 19h1M0 20h1M15 20h1M10 21h1M15 21h1M1 22h1M6 23h1M13 24h2M17 24h1M2 26h1M7 28h1M22 28h1M10 29h1M21 29h1" />
<path stroke="#131312" d="M11 0h1M16 0h1M9 1h1M13 1h1M10 5h1M7 6h1M15 10h1M18 12h1M2 13h1M21 16h1M4 21h1M4 27h1M15 29h1" />
<path stroke="#121311" d="M19 0h1" />
<path stroke="#131310" d="M6 1h1" />
<path stroke="#121213" d="M17 1h1" />
<path stroke="#131113" d="M21 1h1M6 3h1M8 4h1M22 5h1M3 7h1M22 8h1M1 11h1M4 14h1M12 15h1M10 20h1M2 23h1M8 25h1M10 26h1M23 27h1M19 29h1M23 29h1" />
<path stroke="#f2f2f2" d="M2 2h1M20 2h2M3 3h1M20 3h2M18 4h2M3 5h3M18 5h1M4 6h2M10 6h8M6 7h6M13 7h7M5 8h1M7 8h1M9 8h12M4 9h8M13 9h2M16 9h3M20 9h2M3 10h4M8 10h2M12 10h2M17 10h3M21 10h1M4 11h1M12 11h2M21 11h1M3 12h1M13 12h1M21 12h1M12 13h2M16 13h2M7 14h1M16 14h3M6 15h3M16 15h2M7 16h1M16 16h3M6 22h6M13 22h4" />
<path stroke="#131311" d="M1 3h1M11 5h1M3 6h1M10 13h1M1 14h1M8 17h1M4 24h1M16 24h1M22 24h1M12 28h1" />
<path stroke="#f3f2f2" d="M2 3h1M17 5h1M6 8h1M7 10h1M3 11h1M17 22h1" />
<path stroke="#f0f2f2" d="M3 4h1M6 6h1M18 15h1" />
<path stroke="#f2f0f2" d="M4 4h1M8 8h1M12 9h1M5 11h1M12 12h1M8 16h1" />
<path stroke="#111313" d="M7 4h1M2 6h1M11 13h1M9 14h1M19 14h1M2 16h1M3 17h1M6 17h1M21 17h1M1 18h1M5 19h1M22 19h1M9 21h1M20 23h1M1 26h1M14 26h1M0 28h1M1 29h1M7 29h1" />
<path stroke="#f2f2f0" d="M19 5h1M12 7h1M19 9h1" />
<path stroke="#f2f2f3" d="M18 6h1M15 9h1M6 11h1M20 11h1M6 14h1M12 22h1" />
<path stroke="#131213" d="M21 7h1M23 10h1M17 12h1M19 12h1M4 15h1M11 16h1M22 16h1M20 18h1M3 21h1M23 23h1M17 25h1M0 29h1M22 29h1" />
<path stroke="#f2f0f0" d="M20 10h1" />
<path stroke="#f3f3f2" d="M2 11h1M2 12h1" />
<path stroke="#121013" d="M3 14h1" />
<path stroke="#131111" d="M15 14h1" />
<path stroke="#111311" d="M10 16h1M18 24h1" />
<path stroke="#101313" d="M16 17h1" />
<path stroke="#131112" d="M9 23h1" />
<path stroke="#131211" d="M22 27h1" />
<path stroke="#121312" d="M5 29h1" />
</svg>