<svg xmlns="http://www.w3.org/2000/svg" viewBox="0 -0.5 24 30" shape-rendering="crispEdges">
<metadata>Made with Pixels to Svg https://codepen.io/shshaw/pen/XbxvNj</metadata>
<path stroke="#131313" d="M0 0h2M3 0h8M12 0h5M18 0h5M0 1h24M0 2h2M3 2h2M6 2h10M17 2h3M23 2h1M0 3h2M4 3h4M9 3h11M22 3h2M0 4h3M5 4h5M11 4h1M13 4h5M20 4h4M0 5h3M6 5h11M20 5h4M0 6h4M7 6h3M19 6h5M0 7h6M20 7h3M0 8h3M4 8h1M21 8h3M0 9h4M22 9h2M0 10h3M10 10h2M14 10h3M23 10h1M0 11h2M7 11h2M10 11h2M14 11h6M22 11h2M0 12h2M4 12h8M14 12h2M17 12h4M22 12h2M0 13h12M14 13h2M18 13h6M0 14h6M8 14h1M10 14h6M19 14h5M0 15h3M4 15h2M9 15h7M19 15h5M0 16h2M3 16h2M6 16h1M9 16h3M13 16h3M19 16h5M0 17h24M0 18h4M5 18h16M22 18h2M0 19h6M7 19h15M23 19h1M0 20h18M19 20h5M0 21h1M2 21h22M0 22h1M2 22h4M18 22h2M21 22h2M0 23h5M6 23h6M13 23h11M0 24h1M2 24h22M0 25h8M9 25h9M19 25h2M22 25h2M0 26h14M16 26h8M0 27h11M12 27h12M0 28h6M7 28h17M0 29h5M6 29h6M13 29h3M17 29h7" />
<path stroke="#131312" d="M2 0h1M16 2h1M8 3h1M16 12h1M12 16h1M20 22h1M15 26h1M6 28h1M16 29h1" />
<path stroke="#131113" d="M11 0h1M17 0h1M18 20h1" />
<path stroke="#131311" d="M23 0h1M12 4h1M3 15h1M5 16h1M21 18h1M1 22h1M23 22h1M14 26h1" />
<path stroke="#47dcd5" d="M2 2h1M20 2h2M2 3h2M20 3h2M4 4h1M18 4h2M3 5h3M17 5h3M4 6h3M10 6h9M6 7h14M5 8h13M20 8h1M4 9h18M3 10h4M8 10h2M13 10h1M17 10h5M2 11h2M5 11h2M12 11h2M20 11h2M2 12h2M12 12h2M21 12h1M12 13h2M16 13h2M6 14h2M16 14h3M6 15h3M16 15h1M18 15h1M7 16h2M16 16h3M6 22h12" />
<path stroke="#121313" d="M5 2h1M22 2h1M23 7h1M2 16h1M18 25h1" />
<path stroke="#45dcd5" d="M3 4h1M7 10h1" />
<path stroke="#131213" d="M10 4h1M3 8h1M22 10h1M9 11h1M6 19h1M22 19h1M1 21h1M12 23h1M8 25h1M21 25h1M5 29h1" />
<path stroke="#47dcd4" d="M18 8h2" />
<path stroke="#47ddd5" d="M12 10h1M17 15h1" />
<path stroke="#47ded5" d="M4 11h1" />
<path stroke="#111313" d="M9 14h1M4 18h1M5 23h1M1 24h1" />
<path stroke="#121213" d="M11 27h1" />
<path stroke="#111213" d="M12 29h1" />
</svg>