<svg xmlns="http://www.w3.org/2000/svg" viewBox="0 -0.5 24 30" shape-rendering="crispEdges">
<metadata>Made with Pixels to Svg https://codepen.io/shshaw/pen/XbxvNj</metadata>
<path stroke="#121313" d="M0 0h1M7 4h1M2 7h1M1 14h1M2 16h1M12 18h1M0 19h1M5 20h1M0 21h1M2 21h1M20 21h1M14 22h1M19 23h1M4 24h1M23 25h1M7 27h1M15 27h1" />
<path stroke="#131313" d="M1 0h11M13 0h3M17 0h6M0 1h7M9 1h4M14 1h2M17 1h7M0 2h2M3 2h14M18 2h2M23 2h1M0 3h2M4 3h1M6 3h1M8 3h1M10 3h4M15 3h4M22 3h2M1 4h1M5 4h1M9 4h1M11 4h3M15 4h1M20 4h4M0 5h1M2 5h1M6 5h2M9 5h6M16 5h1M20 5h4M1 6h1M7 6h1M20 6h2M23 6h1M0 7h2M4 7h1M20 7h2M23 7h1M1 8h4M23 8h1M0 9h3M23 9h1M0 10h1M10 10h2M14 10h3M0 11h2M7 11h4M14 11h5M22 11h2M0 12h2M4 12h6M14 12h1M16 12h5M22 12h1M0 13h6M7 13h5M14 13h7M22 13h2M0 14h1M3 14h3M9 14h1M11 14h5M20 14h4M1 15h1M3 15h1M9 15h1M11 15h3M15 15h1M19 15h2M23 15h1M0 16h2M3 16h1M5 16h1M9 16h6M19 16h3M23 16h1M0 17h3M4 17h2M7 17h10M18 17h6M0 18h1M3 18h2M6 18h1M8 18h4M13 18h2M16 18h1M18 18h1M20 18h1M22 18h2M2 19h11M15 19h1M17 19h2M20 19h4M0 20h3M6 20h1M8 20h3M12 20h4M17 20h7M1 21h1M4 21h1M6 21h1M8 21h4M13 21h2M16 21h2M19 21h1M21 21h3M0 22h4M5 22h1M9 22h5M15 22h2M19 22h5M0 23h1M3 23h4M8 23h6M16 23h1M18 23h1M20 23h4M2 24h1M5 24h2M11 24h2M14 24h1M18 24h2M23 24h1M0 25h9M18 25h5M0 26h13M14 26h10M0 27h2M3 27h2M6 27h1M8 27h7M16 27h2M20 27h4M0 28h6M9 28h15M0 29h1M2 29h3M6 29h4M12 29h11" />
<path stroke="#131311" d="M12 0h1M16 1h1M9 3h1M14 3h1M2 4h1M6 4h1M8 4h1M14 4h1M3 6h1M22 9h1M23 12h1M21 13h1M2 14h1M2 15h1M14 15h1M4 16h1M17 17h1M16 19h1M19 19h1M12 21h1M15 23h1M10 24h1M13 24h1M21 24h1M18 27h1M8 28h1" />
<path stroke="#121113" d="M16 0h1M2 18h1M14 23h1" />
<path stroke="#111313" d="M23 0h1M7 1h1M22 2h1M10 4h1M15 5h1M0 6h1M2 6h1M22 6h1M2 10h1M10 14h1M0 15h1M4 15h2M7 18h1M11 20h1M2 23h1M3 24h1M15 24h1M20 24h1M7 28h1" />
<path stroke="#131113" d="M8 1h1M13 1h1M0 4h1M9 6h1M0 8h1M21 8h1M1 10h1M22 10h1M6 13h1M10 15h1M3 17h1M6 17h1M19 18h1M1 19h1M22 24h1M17 25h1M5 27h1M10 29h1" />
<path stroke="#f2f2f2" d="M2 2h1M20 2h2M20 3h2M3 4h1M18 4h2M3 5h2M17 5h3M4 6h3M10 6h1M12 6h7M6 7h5M12 7h2M15 7h1M17 7h3M5 8h11M17 8h4M5 9h1M8 9h2M12 9h2M15 9h3M19 9h1M21 9h1M3 10h2M7 10h2M12 10h2M17 10h4M2 11h2M5 11h2M12 11h2M20 11h2M2 12h1M12 12h2M21 12h1M12 13h2M7 14h2M16 14h3M6 15h3M16 15h1M7 16h2M18 21h1M6 22h1M17 23h1M7 24h3M16 24h1M9 25h6M16 25h1" />
<path stroke="#131312" d="M17 2h1M5 3h1M7 3h1M19 3h1M8 5h1M3 7h1M23 10h1M19 11h1M11 12h1M19 14h1M21 15h1M15 16h1M21 18h1M7 20h1M3 21h1M5 21h1M4 22h1M1 23h1M0 24h1M1 29h1M23 29h1" />
<path stroke="#f2f0f2" d="M2 3h2M16 8h1M9 10h1M18 16h1" />
<path stroke="#f2f2f0" d="M4 4h1M11 6h1M16 7h1M18 15h1M7 23h1M17 24h1" />
<path stroke="#131213" d="M16 4h2M1 5h1M8 6h1M19 6h1M5 7h1M22 7h1M22 8h1M11 11h1M22 15h1M1 18h1M5 18h1M13 19h2M3 20h1M16 20h1M7 21h1M15 21h1M8 22h1M13 26h1M19 27h1M5 29h1M11 29h1" />
<path stroke="#f2f3f2" d="M5 5h1M14 7h1M7 9h1M10 9h2M16 16h1M7 22h1" />
<path stroke="#f2f2f3" d="M11 7h1M6 9h1M20 9h1M6 10h1M17 22h1" />
<path stroke="#121312" d="M3 9h1M4 20h1" />
<path stroke="#f3f2f2" d="M4 9h1M14 9h1M17 16h1M18 22h1M15 25h1" />
<path stroke="#f3f2f0" d="M18 9h1" />
<path stroke="#f2f0f0" d="M5 10h1" />
<path stroke="#f3f0f2" d="M21 10h1" />
<path stroke="#f0f2f2" d="M4 11h1M3 12h1M6 14h1M17 15h1M6 16h1" />
<path stroke="#111111" d="M10 12h1" />
<path stroke="#101313" d="M15 12h1" />
<path stroke="#131013" d="M22 16h1" />
<path stroke="#131310" d="M15 18h1" />
<path stroke="#121311" d="M17 18h1" />
<path stroke="#121213" d="M1 24h1" />
<path stroke="#111311" d="M2 27h1" />
<path stroke="#131211" d="M6 28h1" />
</svg>