<svg xmlns="http://www.w3.org/2000/svg" viewBox="0 -0.5 24 30" shape-rendering="crispEdges">
<metadata>Made with Pixels to Svg https://codepen.io/shshaw/pen/XbxvNj</metadata>
<path stroke="#131313" d="M0 0h13M14 0h10M0 1h24M0 2h2M3 2h3M7 2h13M22 2h2M0 3h2M4 3h16M22 3h2M0 4h3M5 4h6M12 4h6M20 4h2M23 4h1M0 5h3M6 5h11M20 5h4M0 6h4M7 6h3M19 6h5M0 7h6M20 7h4M0 8h5M21 8h3M0 9h4M22 9h2M0 10h3M10 10h2M14 10h3M22 10h2M0 11h2M7 11h5M14 11h6M22 11h2M0 12h2M4 12h8M14 12h7M22 12h2M0 13h6M7 13h5M14 13h4M19 13h5M0 14h6M9 14h2M12 14h4M19 14h5M1 15h5M9 15h7M19 15h5M0 16h5M9 16h7M19 16h5M0 17h12M13 17h4M18 17h6M0 18h24M0 19h24M0 20h2M3 20h21M0 21h18M19 21h5M0 22h5M8 22h9M19 22h5M0 23h7M8 23h9M18 23h6M0 24h7M10 24h1M12 24h4M18 24h3M22 24h2M0 25h1M2 25h7M17 25h7M0 26h9M10 26h14M0 27h24M0 28h23M0 29h24" />
<path stroke="#121313" d="M13 0h1M22 4h1M0 15h1M5 22h1" />
<path stroke="#f3fa9e" d="M2 2h1M20 2h1M2 3h2M20 3h2M3 4h2M18 4h2M3 5h3M17 5h3M4 6h3M11 6h8M6 7h14M5 8h14M20 8h1M4 9h2M7 9h15M3 10h7M12 10h2M17 10h5M2 11h5M12 11h2M20 11h2M2 12h2M12 12h2M21 12h1M12 13h2M6 14h3M16 14h3M6 15h3M16 15h3M6 16h3M16 16h3M18 21h1M6 22h2M17 22h2M7 23h1M17 23h1M7 24h1M9 24h1M16 24h2M9 25h8" />
<path stroke="#111313" d="M6 2h1M5 16h1M2 20h1" />
<path stroke="#f3fa9c" d="M21 2h1" />
<path stroke="#131213" d="M11 4h1M6 13h1M23 28h1" />
<path stroke="#f2fa9e" d="M10 6h1M19 8h1" />
<path stroke="#f1fa9e" d="M6 9h1M8 24h1" />
<path stroke="#131113" d="M18 13h1M12 17h1M17 17h1M21 24h1" />
<path stroke="#131311" d="M11 14h1M11 24h1M9 26h1" />
<path stroke="#131312" d="M1 25h1" />
</svg>