<svg xmlns="http://www.w3.org/2000/svg" viewBox="0 -0.5 24 30" shape-rendering="crispEdges">
<metadata>Made with Pixels to Svg https://codepen.io/shshaw/pen/XbxvNj</metadata>
<path stroke="#131313" d="M0 0h24M0 1h10M11 1h13M0 2h2M3 2h17M22 2h2M0 3h2M4 3h16M22 3h2M0 4h3M5 4h1M7 4h11M20 4h4M0 5h3M7 5h10M20 5h4M0 6h4M7 6h3M19 6h5M0 7h6M20 7h4M0 8h4M21 8h3M0 9h4M22 9h2M0 10h3M10 10h2M14 10h3M22 10h2M0 11h2M8 11h4M14 11h6M22 11h2M0 12h2M4 12h1M6 12h6M14 12h7M22 12h2M0 13h12M14 13h6M21 13h3M0 14h6M9 14h7M19 14h5M0 15h6M9 15h5M15 15h1M19 15h5M0 16h6M9 16h7M19 16h5M0 17h24M0 18h1M2 18h22M0 19h24M0 20h24M0 21h1M2 21h2M5 21h7M13 21h5M19 21h5M0 22h6M8 22h9M19 22h5M0 23h6M8 23h5M14 23h3M18 23h6M0 24h7M10 24h6M18 24h4M23 24h1M0 25h9M17 25h7M0 26h11M12 26h12M0 27h1M2 27h22M0 28h24M0 29h24" />
<path stroke="#111313" d="M10 1h1M20 13h1M1 18h1M1 21h1" />
<path stroke="#47dcd5" d="M2 2h1M20 2h2M2 3h2M20 3h2M3 4h2M18 4h2M3 5h3M17 5h3M4 6h3M10 6h9M6 7h4M11 7h9M5 8h16M4 9h18M3 10h7M12 10h2M17 10h5M2 11h5M12 11h2M20 11h2M3 12h1M12 12h2M21 12h1M12 13h2M6 14h3M16 14h3M6 15h3M16 15h3M6 16h3M16 16h3M18 21h1M6 22h2M17 22h2M7 23h1M17 23h1M7 24h3M16 24h2M9 25h4M14 25h3" />
<path stroke="#121313" d="M6 4h1M4 8h1M7 11h1M5 12h1M4 21h1" />
<path stroke="#131213" d="M6 5h1M14 15h1M6 23h1M1 27h1" />
<path stroke="#47ddd5" d="M10 7h1" />
<path stroke="#47dcd7" d="M2 12h1M13 25h1" />
<path stroke="#131312" d="M12 21h1M11 26h1" />
<path stroke="#131311" d="M13 23h1M22 24h1" />
</svg>