<svg xmlns="http://www.w3.org/2000/svg" viewBox="0 -0.5 24 30" shape-rendering="crispEdges">
<metadata>Made with Pixels to Svg https://codepen.io/shshaw/pen/XbxvNj</metadata>
<path stroke="#131313" d="M0 0h2M4 0h14M19 0h2M22 0h2M1 1h8M10 1h8M19 1h2M22 1h2M0 2h6M9 2h7M17 2h7M0 3h7M11 3h1M13 3h7M21 3h3M0 4h8M13 4h5M20 4h3M0 5h2M3 5h6M15 5h3M20 5h4M1 6h1M3 6h2M6 6h4M16 6h8M0 7h10M16 7h2M19 7h5M0 8h5M6 8h3M17 8h7M0 9h3M4 9h3M18 9h4M0 10h3M21 10h1M23 10h1M0 11h6M7 11h10M18 11h6M1 12h10M12 12h1M14 12h6M21 12h3M0 13h23M0 14h3M4 14h2M9 14h1M11 14h2M14 14h2M20 14h2M23 14h1M0 15h4M5 15h1M9 15h7M20 15h4M0 16h6M10 16h6M19 16h5M0 17h2M3 17h2M6 17h15M22 17h2M0 18h4M5 18h8M17 18h7M0 19h1M2 19h1M5 19h3M9 19h3M13 19h6M20 19h4M0 20h1M2 20h12M15 20h5M21 20h3M0 21h1M3 21h7M15 21h7M23 21h1M0 22h8M11 22h3M17 22h7M0 23h7M9 23h5M15 23h1M17 23h7M0 24h1M2 24h5M8 24h8M18 24h6M0 25h15M17 25h5M0 26h3M4 26h2M7 26h4M13 26h2M17 26h7M0 27h4M5 27h18M0 28h3M4 28h9M14 28h4M19 28h5M0 29h15M16 29h8" />
<path stroke="#121313" d="M2 0h1M18 0h1M12 3h1M14 5h1M18 7h1M5 8h1M23 9h1M17 11h1M0 12h1M13 14h1M9 16h1M14 18h1M1 19h1M4 19h1M2 21h1M1 24h1M15 25h1M3 26h1M15 29h1" />
<path stroke="#131213" d="M3 0h1M23 4h1M2 5h1M18 5h2M11 12h1M13 12h1M10 14h1M22 14h1M4 15h1M21 17h1M13 18h1M22 25h2M11 26h2M13 28h1M18 28h1" />
<path stroke="#131311" d="M21 0h1M5 6h1M8 19h1M20 20h1M22 21h1M14 23h1M16 25h1M16 26h1M23 27h1" />
<path stroke="#111313" d="M0 1h1M9 1h1M0 6h1M2 6h1M3 9h1M22 9h1M23 13h1M14 20h1" />
<path stroke="#131113" d="M18 1h1M21 1h1M16 2h1M20 3h1M18 4h2M4 18h1M16 18h1M12 19h1M6 26h1M3 28h1" />
<path stroke="#f00153" d="M6 2h1M9 8h1M8 16h1" />
<path stroke="#f00053" d="M7 2h2M7 3h4M8 4h2M11 4h2M9 5h2M12 5h2M10 6h2M13 6h3M10 7h6M10 8h7M7 9h9M17 9h1M3 10h9M13 10h8M6 14h3M16 14h4M6 15h2M16 15h3M6 16h2M17 16h1M10 21h5M8 22h3M14 22h3M7 23h1M16 23h1M7 24h1M16 24h1" />
<path stroke="#f00253" d="M10 4h1M16 9h1M17 24h1" />
<path stroke="#f20053" d="M11 5h1M12 6h1M8 23h1" />
<path stroke="#f00051" d="M12 10h1" />
<path stroke="#131312" d="M22 10h1M20 12h1M2 17h1M15 18h1M3 19h1M1 20h1M1 21h1M4 27h1" />
<path stroke="#121113" d="M6 11h1" />
<path stroke="#111213" d="M3 14h1" />
<path stroke="#f10053" d="M8 15h1" />
<path stroke="#f00052" d="M19 15h1M16 16h1" />
<path stroke="#f00152" d="M18 16h1" />
<path stroke="#111312" d="M5 17h1M19 19h1" />
<path stroke="#111311" d="M15 26h1" />
</svg>