<svg xmlns="http://www.w3.org/2000/svg" viewBox="0 -0.5 24 30" shape-rendering="crispEdges">
<metadata>Made with Pixels to Svg https://codepen.io/shshaw/pen/XbxvNj</metadata>
<path stroke="#131311" d="M0 0h1M13 2h1M2 3h2M15 4h1M0 5h1M4 7h1M8 7h1M18 7h1M23 8h1M2 9h1M13 13h1M10 14h1M14 16h1M16 18h1M2 20h1M10 20h1M14 20h1M23 20h1M20 22h1M23 24h1M14 26h1M17 28h1" />
<path stroke="#131313" d="M1 0h9M11 0h5M17 0h6M0 1h2M3 1h1M5 1h16M23 1h1M0 2h1M2 2h2M5 2h1M10 2h3M15 2h8M1 3h1M4 3h2M11 3h1M13 3h1M15 3h9M0 4h8M14 4h1M18 4h3M23 4h1M2 5h1M4 5h4M14 5h10M0 6h5M7 6h1M9 6h1M16 6h2M19 6h2M22 6h2M0 7h1M2 7h2M5 7h3M9 7h1M16 7h2M19 7h5M0 8h1M2 8h7M17 8h4M0 9h2M4 9h3M18 9h1M20 9h4M0 10h3M21 10h3M0 11h2M3 11h2M6 11h7M14 11h4M19 11h5M0 12h4M5 12h10M16 12h2M20 12h4M0 13h7M8 13h5M14 13h5M20 13h3M0 14h3M4 14h2M9 14h1M12 14h4M20 14h1M22 14h2M0 15h6M9 15h4M20 15h2M23 15h1M0 16h6M9 16h5M15 16h1M19 16h5M2 17h7M10 17h1M12 17h1M14 17h5M20 17h4M1 18h11M13 18h3M17 18h1M20 18h4M0 19h8M9 19h3M13 19h1M15 19h2M18 19h3M22 19h2M0 20h1M3 20h4M8 20h2M12 20h1M15 20h2M18 20h2M21 20h2M0 21h4M5 21h1M7 21h3M15 21h2M18 21h1M20 21h4M0 22h4M5 22h3M13 22h1M17 22h3M21 22h3M1 23h4M6 23h1M9 23h3M13 23h3M17 23h2M20 23h1M22 23h2M0 24h2M3 24h4M9 24h6M18 24h3M22 24h1M0 25h1M2 25h1M5 25h17M23 25h1M1 26h4M6 26h1M8 26h4M15 26h9M0 27h2M4 27h1M6 27h4M11 27h1M13 27h2M17 27h2M20 27h4M0 28h10M11 28h2M14 28h3M18 28h6M0 29h4M5 29h8M14 29h1M16 29h1M18 29h1M20 29h1M23 29h1" />
<path stroke="#111313" d="M10 0h1M2 1h1M22 1h1M4 2h1M13 4h1M1 5h1M2 11h1M5 11h1M4 12h1M18 12h1M7 13h1M22 15h1M0 17h1M12 18h1M7 20h1M11 20h1M2 24h1M21 24h1M1 25h1M0 26h1M5 27h1M12 27h1M13 28h1M4 29h1M15 29h1M21 29h2" />
<path stroke="#131113" d="M16 0h1M4 1h1M21 1h1M0 3h1M16 4h1M8 6h1M22 8h1M23 13h1M11 14h1M18 18h2M12 19h1M17 19h1M13 20h1M17 20h1M11 22h1M8 24h1M22 25h1M3 27h1M16 27h1M17 29h1" />
<path stroke="#121313" d="M23 0h1M9 2h1M17 4h1M3 5h1M1 8h1M21 8h1M3 9h1M3 14h1M14 19h1M1 20h1M17 21h1M15 24h1M3 25h2M7 26h1M12 26h1M13 29h1M19 29h1" />
<path stroke="#131211" d="M1 2h1M14 2h1M18 11h1M0 18h1" />
<path stroke="#47dcd5" d="M6 2h2M9 3h2M8 4h5M12 5h2M11 6h5M10 7h1M13 7h2M9 8h1M11 8h2M14 8h3M7 9h6M14 9h3M3 10h8M12 10h3M16 10h2M6 14h2M17 14h1M19 14h1M6 15h1M8 15h1M16 15h2M6 16h3M16 16h2M10 21h4M8 22h3M15 22h2M7 23h2M16 23h1M7 24h1M16 24h2" />
<path stroke="#47ddd5" d="M8 2h1M10 5h1M10 6h1M10 8h1M19 10h1M16 14h1" />
<path stroke="#131213" d="M23 2h1M14 3h1M8 5h1M6 6h1M19 9h1M13 11h1M15 12h1M19 13h1M13 15h1M9 17h1M8 19h1M21 19h1M20 20h1M19 21h1M4 22h1M0 23h1M5 23h1M12 23h1M19 23h1M21 23h1M5 26h1M2 27h1M10 27h1M10 28h1" />
<path stroke="#131312" d="M6 3h1M18 6h1M21 6h1M19 12h1M21 14h1M15 15h1M1 17h1M11 17h1M15 27h1M19 27h1" />
<path stroke="#47ded5" d="M7 3h1M15 7h1M18 10h1M18 14h1M18 15h1" />
<path stroke="#47dcd4" d="M8 3h1M9 5h1M11 5h1M13 8h1M13 9h1M14 22h1" />
<path stroke="#121213" d="M12 3h1M1 7h1" />
<path stroke="#121311" d="M21 4h1" />
<path stroke="#131112" d="M22 4h1M4 21h1" />
<path stroke="#101313" d="M5 6h1M13 26h1" />
<path stroke="#47dcd7" d="M11 7h1M17 9h1M8 14h1M7 15h1M19 15h1M14 21h1" />
<path stroke="#47ddd4" d="M12 7h1" />
<path stroke="#44ded4" d="M11 10h1" />
<path stroke="#47ddd7" d="M15 10h1" />
<path stroke="#46dcd5" d="M20 10h1M18 16h1" />
<path stroke="#111311" d="M14 15h1" />
<path stroke="#121113" d="M13 17h1" />
<path stroke="#111213" d="M19 17h1" />
<path stroke="#111312" d="M6 21h1" />
<path stroke="#111113" d="M12 22h1" />
</svg>