<svg xmlns="http://www.w3.org/2000/svg" viewBox="0 -0.5 24 30" shape-rendering="crispEdges">
<metadata>Made with Pixels to Svg https://codepen.io/shshaw/pen/XbxvNj</metadata>
<path stroke="#131313" d="M0 0h10M11 0h5M17 0h3M21 0h3M0 1h2M3 1h1M5 1h1M7 1h1M9 1h6M16 1h3M20 1h4M0 2h6M9 2h9M20 2h3M0 3h6M11 3h1M13 3h9M23 3h1M0 4h2M3 4h5M13 4h3M17 4h1M19 4h4M0 5h6M7 5h1M14 5h3M18 5h6M0 6h6M7 6h3M16 6h5M22 6h2M0 7h10M16 7h7M0 8h3M4 8h5M17 8h6M0 9h7M19 9h5M0 10h3M21 10h3M0 11h24M0 12h22M23 12h1M0 13h16M18 13h6M0 14h5M8 14h5M14 14h2M19 14h5M0 15h6M9 15h7M19 15h4M0 16h3M4 16h3M9 16h7M19 16h1M21 16h3M1 17h2M4 17h11M16 17h2M20 17h4M0 18h6M7 18h2M10 18h14M0 19h8M9 19h1M11 19h9M21 19h3M1 20h14M16 20h1M18 20h6M0 21h9M10 21h9M20 21h4M0 22h3M4 22h2M19 22h5M0 23h2M3 23h7M11 23h13M0 24h24M0 25h1M2 25h7M10 25h1M12 25h12M0 26h1M2 26h10M13 26h1M16 26h7M0 27h6M7 27h5M14 27h10M0 28h4M5 28h9M15 28h9M0 29h13M14 29h10" />
<path stroke="#111313" d="M10 0h1M8 1h1M6 3h1M2 4h1M16 4h1M6 6h1M3 8h1M13 14h1M3 16h1M15 17h1M9 21h1M2 23h1M1 26h1M23 26h1M14 28h1" />
<path stroke="#131113" d="M16 0h1M20 0h1M2 1h1M4 1h1M18 2h1M23 2h1M9 18h1M15 26h1M4 28h1" />
<path stroke="#131213" d="M6 1h1M19 2h1M23 4h1M8 5h1M21 6h1M22 12h1M3 17h1M10 19h1M15 20h1M10 23h1M12 27h1M13 29h1" />
<path stroke="#131312" d="M15 1h1M17 5h1M18 9h1M18 17h1M6 27h1M13 27h1" />
<path stroke="#131311" d="M19 1h1M22 3h1M23 7h1M23 8h1M0 17h1M6 18h1M8 19h1M20 19h1M0 20h1M19 21h1M18 22h1M1 25h1M9 25h1M11 25h1M12 26h1" />
<path stroke="#f2f2f2" d="M6 2h3M7 3h4M8 4h5M9 5h5M10 6h6M10 7h5M9 8h8M7 9h8M16 9h2M3 10h18M16 13h2M6 14h2M16 14h3M6 15h3M16 15h3M7 16h2M16 16h3M6 22h6M13 22h5" />
<path stroke="#121313" d="M12 3h1M6 5h1M5 14h1M23 15h1M20 16h1M19 17h1M17 20h1" />
<path stroke="#111113" d="M18 4h1" />
<path stroke="#f2f2f3" d="M15 7h1" />
<path stroke="#f2f0f2" d="M15 9h1M12 22h1" />
<path stroke="#131212" d="M3 22h1" />
<path stroke="#111311" d="M14 26h1" />
</svg>