<svg xmlns="http://www.w3.org/2000/svg" viewBox="0 -0.5 24 30" shape-rendering="crispEdges">
<metadata>Made with Pixels to Svg https://codepen.io/shshaw/pen/XbxvNj</metadata>
<path stroke="#131313" d="M0 0h8M9 0h8M18 0h6M0 1h4M5 1h5M11 1h9M21 1h3M0 2h6M9 2h15M0 3h1M2 3h5M11 3h13M0 4h8M13 4h10M0 5h9M14 5h10M0 6h8M9 6h1M16 6h8M0 7h10M16 7h7M0 8h9M17 8h7M0 9h7M18 9h6M0 10h3M21 10h3M0 11h23M0 12h13M14 12h10M0 13h16M18 13h6M0 14h6M8 14h6M15 14h1M19 14h5M0 15h6M10 15h6M19 15h5M0 16h4M5 16h1M9 16h7M19 16h5M0 17h4M5 17h19M0 18h4M5 18h19M1 19h5M7 19h5M13 19h11M0 20h24M0 21h9M11 21h4M16 21h8M0 22h6M18 22h6M0 23h17M18 23h6M0 24h3M4 24h1M6 24h18M0 25h15M16 25h2M19 25h1M21 25h3M0 26h24M0 27h24M0 28h9M10 28h7M18 28h6M0 29h19M20 29h4" />
<path stroke="#121313" d="M8 0h1M10 1h1M23 4h1M6 16h1M5 24h1" />
<path stroke="#131312" d="M17 0h1M23 11h1M14 14h1M10 21h1M3 24h1M17 28h1" />
<path stroke="#131113" d="M4 1h1M15 25h1" />
<path stroke="#111313" d="M20 1h1" />
<path stroke="#f3fa9e" d="M6 2h3M7 3h2M10 3h1M8 4h5M9 5h5M10 6h1M12 6h3M10 7h6M9 8h8M7 9h11M3 10h18M16 13h2M6 14h2M16 14h3M6 15h3M17 15h2M7 16h2M16 16h3M6 22h12" />
<path stroke="#131311" d="M1 3h1M23 7h1M6 19h1M12 19h1M9 21h1M17 23h1M20 25h1" />
<path stroke="#f3fb9e" d="M9 3h1" />
<path stroke="#131213" d="M8 6h1M13 12h1M9 15h1M4 16h1M4 17h1M4 18h1M0 19h1M15 21h1M9 28h1M19 29h1" />
<path stroke="#f3f89e" d="M11 6h1" />
<path stroke="#f1fa9e" d="M15 6h1" />
<path stroke="#f3fa9c" d="M16 15h1" />
<path stroke="#131211" d="M18 25h1" />
</svg>