<svg xmlns="http://www.w3.org/2000/svg" viewBox="0 -0.5 24 30" shape-rendering="crispEdges">
<metadata>Made with Pixels to Svg https://codepen.io/shshaw/pen/XbxvNj</metadata>
<path stroke="#131313" d="M0 0h3M4 0h9M14 0h7M22 0h2M1 1h1M3 1h7M11 1h4M16 1h3M20 1h4M0 2h3M4 2h2M9 2h2M12 2h1M14 2h7M22 2h2M0 3h3M4 3h1M6 3h1M11 3h9M22 3h2M0 4h1M2 4h6M14 4h4M19 4h1M21 4h1M23 4h1M0 5h1M2 5h5M8 5h1M14 5h4M19 5h5M0 6h4M5 6h4M16 6h5M22 6h2M0 7h1M2 7h8M19 7h5M1 8h1M3 8h3M8 8h1M17 8h2M20 8h4M0 9h7M18 9h2M21 9h3M0 10h3M21 10h3M0 11h2M3 11h1M5 11h15M21 11h3M1 12h1M6 12h5M12 12h12M0 13h7M8 13h8M18 13h2M21 13h3M0 14h6M11 14h3M15 14h1M19 14h2M22 14h2M1 15h5M10 15h2M14 15h1M19 15h5M0 16h1M3 16h3M9 16h3M14 16h2M19 16h5M0 17h3M4 17h3M8 17h5M14 17h5M20 17h4M0 18h1M2 18h3M6 18h1M8 18h4M14 18h10M1 19h7M10 19h7M19 19h5M0 20h4M5 20h1M9 20h4M14 20h4M19 20h5M0 21h1M2 21h3M8 21h5M14 21h2M17 21h1M19 21h5M0 22h6M18 22h2M21 22h3M1 23h6M9 23h15M0 24h17M18 24h6M0 25h5M7 25h1M9 25h4M14 25h7M23 25h1M0 26h3M4 26h3M8 26h3M12 26h5M18 26h6M0 27h1M2 27h3M6 27h3M10 27h2M13 27h1M16 27h8M1 28h9M11 28h11M23 28h1M0 29h5M6 29h3M10 29h1M12 29h12" />
<path stroke="#111313" d="M3 0h1M0 1h1M15 1h1M3 2h1M21 2h1M22 4h1M4 6h1M16 7h1M18 7h1M2 8h1M19 8h1M11 12h1M7 13h1M8 14h2M14 14h1M19 17h1M6 20h1M7 21h1M16 21h1M8 23h1M8 25h1M21 25h1M3 26h1M0 28h1M22 28h1" />
<path stroke="#131113" d="M13 0h1M13 2h1M3 3h1M21 3h1M13 4h1M18 4h1M2 11h1M3 12h1M0 15h1M9 15h1M1 16h1M18 20h1M0 23h1M7 26h1" />
<path stroke="#131213" d="M21 0h1M0 12h1M2 12h1M4 12h1M15 15h1M6 16h1M3 17h1M7 17h1M0 19h1M18 19h1M8 20h1M13 20h1M13 25h1M5 27h1M15 27h1M10 28h1M5 29h1M9 29h1" />
<path stroke="#131312" d="M2 1h1M19 1h1M11 2h1M5 3h1M20 3h1M1 5h1M1 7h1M17 7h1M0 8h1M7 8h1M10 14h1M13 15h1M13 17h1M1 18h1M5 18h1M1 21h1M13 21h1M20 22h1M14 27h1" />
<path stroke="#131311" d="M10 1h1M18 5h1M6 8h1M20 9h1M20 11h1M21 14h1M12 16h1M7 18h1M12 18h2M8 19h1M7 23h1M11 26h1M17 26h1M11 29h1" />
<path stroke="#47dcd5" d="M6 2h3M7 3h1M9 3h2M8 4h2M11 4h2M9 5h5M11 6h5M11 7h5M9 8h6M16 8h1M8 9h10M3 10h2M6 10h2M9 10h1M11 10h5M18 10h3M16 13h2M6 14h2M16 14h3M6 15h3M16 15h3M7 16h2M16 16h1M18 16h1M6 22h3M10 22h3M14 22h3" />
<path stroke="#45dcd5" d="M8 3h1M10 6h1" />
<path stroke="#121313" d="M1 4h1M7 5h1M9 6h1M21 6h1M4 11h1M5 12h1M12 15h1M2 16h1M7 20h1M17 24h1M5 25h2M22 25h1M1 27h1M9 27h1M12 27h1" />
<path stroke="#46ded5" d="M10 4h1" />
<path stroke="#111312" d="M20 4h1" />
<path stroke="#47dcd4" d="M10 7h1M16 10h1M17 16h1" />
<path stroke="#47ded5" d="M15 8h1M7 9h1M13 22h1M17 22h1" />
<path stroke="#46dcd5" d="M5 10h1" />
<path stroke="#47ddd5" d="M8 10h1" />
<path stroke="#47dcd7" d="M10 10h1M17 10h1M9 22h1" />
<path stroke="#111113" d="M20 13h1" />
<path stroke="#131111" d="M13 16h1" />
<path stroke="#111213" d="M9 19h1M6 21h1" />
<path stroke="#121213" d="M17 19h1" />
<path stroke="#131211" d="M4 20h1" />
<path stroke="#131212" d="M5 21h1" />
<path stroke="#111311" d="M18 21h1" />
</svg>