<svg xmlns="http://www.w3.org/2000/svg" viewBox="0 -0.5 24 30" shape-rendering="crispEdges">
<metadata>Made with Pixels to Svg https://codepen.io/shshaw/pen/XbxvNj</metadata>
<path stroke="#131313" d="M0 0h5M6 0h2M9 0h2M12 0h12M1 1h5M7 1h6M15 1h5M21 1h3M0 2h3M9 2h1M12 2h12M1 3h1M3 3h3M11 3h2M14 3h7M22 3h2M0 4h2M3 4h3M7 4h1M13 4h2M16 4h3M20 4h4M1 5h8M14 5h9M0 6h7M8 6h2M16 6h3M20 6h4M0 7h1M2 7h8M16 7h5M23 7h1M1 8h6M17 8h1M19 8h2M22 8h2M0 9h3M4 9h1M6 9h1M18 9h6M0 10h3M21 10h3M0 11h4M5 11h1M7 11h1M9 11h3M13 11h2M16 11h6M23 11h1M0 12h14M15 12h1M18 12h1M20 12h1M22 12h2M0 13h3M4 13h3M8 13h9M18 13h5M0 14h2M4 14h2M9 14h4M14 14h2M19 14h2M22 14h2M2 15h1M4 15h2M10 15h4M15 15h1M19 15h2M22 15h2M0 16h3M4 16h2M10 16h1M12 16h4M20 16h1M22 16h1M0 17h3M4 17h1M6 17h6M14 17h4M19 17h1M21 17h2M0 18h2M3 18h14M18 18h2M21 18h3M2 19h2M5 19h2M9 19h3M13 19h1M15 19h9M0 20h1M2 20h1M4 20h1M6 20h5M13 20h6M20 20h2M23 20h1M0 21h7M10 21h1M12 21h6M19 21h5M2 22h4M8 22h8M19 22h3M23 22h1M0 23h7M9 23h7M18 23h4M0 24h6M10 24h6M19 24h2M22 24h2M0 25h3M4 25h1M6 25h3M17 25h1M19 25h1M21 25h3M0 26h4M5 26h1M12 26h1M14 26h10M0 27h7M8 27h10M19 27h2M22 27h1M0 28h6M7 28h14M22 28h2M0 29h5M6 29h6M16 29h8" />
<path stroke="#131312" d="M5 0h1M0 1h1M0 3h1M2 3h1M8 8h1M3 9h1M2 14h1M13 14h1M9 16h1M12 17h2M4 19h1M3 20h1M5 20h1M11 20h1M22 20h1M22 22h1M18 25h1M7 26h1M6 28h1" />
<path stroke="#131213" d="M8 0h1M6 3h1M18 8h1M8 11h1M12 11h1M21 12h1M7 13h1M23 13h1M3 15h1M23 16h1M20 18h1M8 23h1M22 23h1M3 25h1M11 26h1M13 26h1M7 27h1M14 29h2" />
<path stroke="#131113" d="M11 0h1M13 3h1M23 5h1M7 6h1M1 7h1M5 9h1M15 11h1M16 12h1M19 12h1M21 14h1M9 15h1M21 15h1M19 16h1M2 18h1M8 19h1M19 20h1M21 24h1M5 25h1M20 25h1M4 26h1M6 26h1" />
<path stroke="#121313" d="M6 1h1M4 2h2M11 2h1M15 4h1M19 4h1M7 8h1M4 11h1M22 11h1M3 13h1M21 16h1M5 17h1M18 17h1M20 17h1M0 19h1M8 21h2M0 22h1M16 23h1M18 27h1M21 27h1M23 27h1M21 28h1M5 29h1" />
<path stroke="#131311" d="M13 1h2M3 2h1M2 4h1M21 7h1M0 8h1M21 8h1M17 12h1M14 15h1M11 16h1M3 17h1M17 18h1M1 19h1M7 19h1M12 20h1M10 26h1M13 29h1" />
<path stroke="#111313" d="M20 1h1M10 2h1M21 3h1M6 4h1M0 5h1M6 11h1M14 12h1M3 14h1M1 15h1M3 16h1M14 19h1M11 21h1M1 22h1M16 22h1M23 23h1M18 24h1M9 26h1" />
<path stroke="#f2f2f2" d="M6 2h1M7 3h1M9 3h1M8 4h3M12 4h1M9 5h5M10 6h2M13 6h3M10 7h6M10 8h3M14 8h3M7 9h10M3 10h4M8 10h3M12 10h2M16 10h3M20 10h1M6 14h2M16 14h3M6 15h3M16 15h3M6 16h1M8 16h1M16 16h3M18 21h1M6 22h2M18 22h1M17 23h1M7 24h3M16 24h1M9 25h6M16 25h1" />
<path stroke="#f3f2f2" d="M7 2h1M8 3h1M9 8h1M15 25h1" />
<path stroke="#f0f2f3" d="M8 2h1" />
<path stroke="#f2f2f3" d="M10 3h1M17 9h1M11 10h1M17 22h1" />
<path stroke="#f1f0f2" d="M11 4h1" />
<path stroke="#f2f3f2" d="M12 6h1M13 8h1" />
<path stroke="#121213" d="M19 6h1" />
<path stroke="#111111" d="M22 7h1" />
<path stroke="#f0f2f2" d="M7 10h1M8 14h1" />
<path stroke="#f2f0f2" d="M14 10h2M17 24h1" />
<path stroke="#f0f2f0" d="M19 10h1" />
<path stroke="#121312" d="M17 13h1" />
<path stroke="#131310" d="M0 15h1M23 17h1" />
<path stroke="#f1f2f2" d="M7 16h1" />
<path stroke="#111213" d="M12 19h1" />
<path stroke="#121113" d="M1 20h1M6 24h1" />
<path stroke="#131112" d="M7 21h1" />
<path stroke="#f2f2f0" d="M7 23h1" />
<path stroke="#121311" d="M8 26h1" />
<path stroke="#111312" d="M12 29h1" />
</svg>