<svg xmlns="http://www.w3.org/2000/svg" viewBox="0 -0.5 16 16" shape-rendering="crispEdges">
<metadata>Made with Pixels to Svg https://codepen.io/shshaw/pen/XbxvNj</metadata>
<path stroke="#f2f2f2" d="M0 0h2M3 0h3M7 0h1M9 0h7M0 1h1M0 2h1M13 2h1M15 2h1M0 4h1M15 4h1M11 5h1M15 5h1M0 6h1M10 6h1M15 6h1M0 7h1M9 7h1M15 7h1M0 8h1M5 8h1M15 8h1M0 9h1M3 9h1M5 9h1M7 9h1M0 10h1M4 10h3M0 11h1M2 11h3M6 11h2M9 11h1M15 11h1M0 12h1M4 12h1M6 12h1M15 12h1M4 13h2M7 13h1M15 13h1M0 14h1M15 14h1M0 15h4M5 15h4M10 15h3M14 15h1" />
<path stroke="#f2f2f0" d="M2 0h1M8 8h1M15 9h1M8 11h1M9 15h1" />
<path stroke="#f2f2f3" d="M6 0h1M8 0h1M0 3h1M15 3h1M15 10h1" />
<path stroke="#131113" d="M1 1h1M11 1h1M7 2h1M3 3h1M5 6h1M9 9h1M7 12h1" />
<path stroke="#111313" d="M2 1h1M6 4h1M6 13h1" />
<path stroke="#131313" d="M3 1h3M7 1h4M12 1h1M14 1h1M1 2h6M8 2h5M1 3h2M4 3h7M14 3h1M1 4h1M5 4h1M9 4h2M12 4h3M1 5h3M5 5h4M10 5h1M12 5h3M1 6h2M4 6h1M8 6h2M11 6h4M1 7h1M4 7h5M10 7h5M1 8h4M6 8h2M9 8h6M1 9h1M4 9h1M6 9h1M8 9h1M10 9h1M12 9h2M2 10h2M7 10h8M1 11h1M10 11h5M1 12h3M8 12h7M1 13h3M8 13h4M13 13h2M1 14h2M4 14h5M10 14h5" />
<path stroke="#131312" d="M6 1h1M8 4h1M4 5h1M2 7h1M1 10h1M3 14h1" />
<path stroke="#121313" d="M13 1h1M3 7h1" />
<path stroke="#f0f3f2" d="M15 1h1" />
<path stroke="#111312" d="M14 2h1" />
<path stroke="#131311" d="M11 3h1M9 5h1M6 6h1M12 13h1" />
<path stroke="#f3f2f2" d="M12 3h1M0 5h1M13 15h1M15 15h1" />
<path stroke="#131213" d="M13 3h1M2 4h3M7 4h1M3 6h1M2 9h1M11 9h1M9 14h1" />
<path stroke="#f2f3f2" d="M11 4h1M5 12h1" />
<path stroke="#111311" d="M7 6h1" />
<path stroke="#131112" d="M14 9h1" />
<path stroke="#f0f2f2" d="M5 11h1M0 13h1" />
<path stroke="#f2f3f0" d="M4 15h1" />
</svg>