<svg xmlns="http://www.w3.org/2000/svg" viewBox="0 -0.5 16 16" shape-rendering="crispEdges">
<metadata>Made with Pixels to Svg https://codepen.io/shshaw/pen/XbxvNj</metadata>
<path stroke="#f2f2f2" d="M0 0h2M3 0h8M12 0h3M0 1h1M15 1h1M0 2h1M15 2h1M0 3h1M15 3h1M0 4h1M15 4h1M0 5h1M0 6h1M5 6h1M7 6h1M15 6h1M0 7h1M10 7h1M10 8h1M4 9h1M15 9h1M0 10h1M4 10h1M15 10h1M0 11h1M4 11h3M10 11h1M15 11h1M0 12h1M5 12h1M7 12h2M15 12h1M15 13h1M0 14h1M15 14h1M0 15h3M4 15h2M7 15h7M15 15h1" />
<path stroke="#f2f2f3" d="M2 0h1M0 8h1M5 9h1M0 13h1M3 15h1" />
<path stroke="#f2f2f0" d="M11 0h1M15 5h1M10 9h1M6 15h1" />
<path stroke="#f0f2f2" d="M15 0h1M4 8h1M0 9h1M10 10h1M14 15h1" />
<path stroke="#131313" d="M1 1h5M7 1h8M1 2h4M6 2h3M14 2h1M2 3h3M6 3h2M9 3h6M1 4h3M5 4h3M9 4h2M12 4h2M1 5h5M7 5h4M12 5h3M1 6h2M4 6h1M11 6h4M1 7h1M3 7h7M11 7h1M13 7h2M1 8h2M5 8h4M12 8h3M1 9h3M8 9h2M11 9h1M13 9h1M1 10h1M3 10h1M7 10h3M11 10h4M1 11h3M8 11h2M11 11h2M14 11h1M1 12h3M9 12h6M3 13h4M8 13h3M13 13h2M1 14h3M6 14h6M13 14h2" />
<path stroke="#131312" d="M6 1h1M8 3h1M14 4h1M11 5h1M3 6h1M2 7h1M12 7h1M9 8h1M6 9h2M12 9h1M13 11h1M4 12h1M5 14h1" />
<path stroke="#121313" d="M5 2h1M1 3h1M14 9h1M4 14h1" />
<path stroke="#131113" d="M9 2h1M12 2h1M5 3h1M4 4h1M6 5h1" />
<path stroke="#101313" d="M10 2h1" />
<path stroke="#131213" d="M11 2h1M8 4h1M3 8h1M2 10h1M1 13h1" />
<path stroke="#131013" d="M13 2h1" />
<path stroke="#111313" d="M11 4h1M2 13h1M7 13h1M12 13h1" />
<path stroke="#f2f3f2" d="M6 6h1M8 6h1M6 10h1M7 11h1" />
<path stroke="#f2f0f3" d="M9 6h1" />
<path stroke="#f0f2f3" d="M10 6h1" />
<path stroke="#f2f0f2" d="M15 7h1" />
<path stroke="#131111" d="M11 8h1" />
<path stroke="#f3f2f2" d="M15 8h1M6 12h1" />
<path stroke="#f0f2f0" d="M5 10h1" />
<path stroke="#131311" d="M11 13h1" />
<path stroke="#131310" d="M12 14h1" />
</svg>