<svg xmlns="http://www.w3.org/2000/svg" viewBox="0 -0.5 16 16" shape-rendering="crispEdges">
<metadata>Made with Pixels to Svg https://codepen.io/shshaw/pen/XbxvNj</metadata>
<path stroke="#f0f2f2" d="M0 0h1" />
<path stroke="#f2f2f2" d="M1 0h15M0 1h1M15 1h1M0 2h1M15 2h1M0 3h1M10 3h1M15 3h1M0 4h1M9 4h4M15 4h1M0 5h1M8 5h1M10 5h2M15 5h1M0 6h1M9 6h2M12 6h1M15 6h1M0 7h1M8 7h1M11 7h2M15 7h1M0 8h1M7 8h1M15 8h1M0 9h1M6 9h1M15 9h1M0 10h1M15 10h1M0 11h1M4 11h1M15 11h1M0 12h1M15 12h1M0 13h1M0 14h1M15 14h1M0 15h16" />
<path stroke="#131313" d="M1 1h14M1 2h11M13 2h2M1 3h1M3 3h2M6 3h1M8 3h2M11 3h4M1 4h8M13 4h2M1 5h7M12 5h3M1 6h1M3 6h6M13 6h2M1 7h7M9 7h2M14 7h1M1 8h6M8 8h7M2 9h4M7 9h8M1 10h4M6 10h7M14 10h1M1 11h3M5 11h7M13 11h1M1 12h14M2 13h2M5 13h10M1 14h4M6 14h6M13 14h2" />
<path stroke="#131113" d="M12 2h1M5 3h1M5 14h1" />
<path stroke="#131311" d="M2 3h1M14 11h1" />
<path stroke="#111313" d="M7 3h1M1 13h1" />
<path stroke="#f2f0f2" d="M9 5h1M5 10h1" />
<path stroke="#131213" d="M2 6h1M12 11h1M4 13h1" />
<path stroke="#f2f2f3" d="M11 6h1" />
<path stroke="#111213" d="M13 7h1" />
<path stroke="#121313" d="M1 9h1M13 10h1" />
<path stroke="#f2f2f0" d="M15 13h1" />
<path stroke="#131312" d="M12 14h1" />
</svg>